<?xml version="1.0" encoding="UTF-8"?>
<!DOCTYPE svg PUBLIC "-//W3C//DTD SVG 1.1//EN" "http://www.w3.org/Graphics/SVG/1.1/DTD/svg11.dtd">
<svg xmlns="http://www.w3.org/2000/svg" version="1.1" width="500px" height="500px" style="shape-rendering:geometricPrecision; text-rendering:geometricPrecision; image-rendering:optimizeQuality; fill-rule:evenodd; clip-rule:evenodd" xmlns:xlink="http://www.w3.org/1999/xlink">
<g><path style="opacity:0.682" fill="#80479b" d="M 232.5,-0.5 C 243.5,-0.5 254.5,-0.5 265.5,-0.5C 272.242,0.00461635 278.909,1.00462 285.5,2.5C 259.137,0.87235 232.804,1.20568 206.5,3.5C 215.05,1.33101 223.717,-0.00232144 232.5,-0.5 Z"/></g>
<g><path style="opacity:1" fill="#711799" d="M 285.5,2.5 C 285.833,2.5 286.167,2.5 286.5,2.5C 289.353,3.87695 292.353,5.04362 295.5,6C 298.146,6.49742 300.813,6.66409 303.5,6.5C 303.5,7.5 303.5,8.5 303.5,9.5C 308.822,10.0293 314.156,10.5293 319.5,11C 325.405,12.736 331.071,14.9026 336.5,17.5C 342.965,19.2407 349.298,21.2407 355.5,23.5C 356.791,23.2627 357.791,23.596 358.5,24.5C 361.146,28.0991 364.812,30.0991 369.5,30.5C 370.492,30.3284 371.158,30.6618 371.5,31.5C 371.414,32.4959 371.748,33.3292 372.5,34C 378.769,36.9674 384.769,40.3008 390.5,44C 391.05,46.1576 392.05,46.6576 393.5,45.5C 393.833,45.5 394.167,45.5 394.5,45.5C 396.37,51.4118 400.37,54.7451 406.5,55.5C 406.833,55.5 407.167,55.5 407.5,55.5C 409.051,59.2563 411.551,62.2563 415,64.5C 415.49,65.7932 415.657,67.1266 415.5,68.5C 418.167,69.1667 420.833,69.8333 423.5,70.5C 423.833,70.5 424.167,70.5 424.5,70.5C 424.5,71.1667 424.5,71.8333 424.5,72.5C 425.75,75.006 426.416,77.6726 426.5,80.5C 427.833,80.5 429.167,80.5 430.5,80.5C 430.33,81.8221 430.663,82.9887 431.5,84C 434.907,84.7775 437.907,86.2775 440.5,88.5C 441.014,90.3664 441.68,92.1997 442.5,94C 442.095,94.9454 441.428,95.6121 440.5,96C 442.053,97.0968 443.386,98.4301 444.5,100C 449.001,100.473 451.668,102.973 452.5,107.5C 452.471,109.029 451.804,110.196 450.5,111C 451.849,111.772 452.682,112.939 453,114.5C 453.483,113.552 453.649,112.552 453.5,111.5C 454.5,111.5 455.5,111.5 456.5,111.5C 458.386,114.455 459.386,117.789 459.5,121.5C 461.216,121.629 462.883,121.962 464.5,122.5C 464.343,123.873 464.51,125.207 465,126.5C 466.468,127.989 467.968,129.323 469.5,130.5C 469.515,135.907 471.349,140.574 475,144.5C 474.758,148.304 476.258,150.97 479.5,152.5C 480.167,152.5 480.5,152.833 480.5,153.5C 480.708,158.422 481.875,163.089 484,167.5C 484.671,168.252 485.504,168.586 486.5,168.5C 486.5,169.167 486.5,169.833 486.5,170.5C 487.62,176.864 488.953,183.197 490.5,189.5C 490.747,190.713 491.414,191.38 492.5,191.5C 493.167,196.833 493.833,202.167 494.5,207.5C 497.896,231.044 498.396,254.711 496,278.5C 493.563,290.751 491.73,303.084 490.5,315.5C 489.883,315.611 489.383,315.944 489,316.5C 487.793,321.668 486.126,326.668 484,331.5C 483.505,333.473 483.338,335.473 483.5,337.5C 481.019,341.141 478.353,344.807 475.5,348.5C 474.996,351.865 474.329,355.198 473.5,358.5C 472.158,360.005 470.492,360.672 468.5,360.5C 468.663,362.857 468.497,365.19 468,367.5C 467.282,366.549 466.449,366.383 465.5,367C 466.554,368.388 466.72,369.888 466,371.5C 463.348,375.482 460.348,379.149 457,382.5C 456.51,383.793 456.343,385.127 456.5,386.5C 455.5,386.5 454.5,386.5 453.5,386.5C 453.5,388.5 453.5,390.5 453.5,392.5C 450.944,392.132 448.944,392.966 447.5,395C 448.517,397.473 448.517,399.973 447.5,402.5C 445.488,401.986 443.488,401.82 441.5,402C 444.118,403.974 443.952,405.807 441,407.5C 440.888,404.553 439.388,403.22 436.5,403.5C 436.5,405.167 436.5,406.833 436.5,408.5C 435.325,408.281 434.325,408.614 433.5,409.5C 434.167,409.833 434.833,410.167 435.5,410.5C 434.289,411.72 434.289,412.887 435.5,414C 434.552,414.483 433.552,414.649 432.5,414.5C 433.113,417.969 431.779,419.969 428.5,420.5C 428.5,421.833 428.5,423.167 428.5,424.5C 425.972,425.023 423.639,426.023 421.5,427.5C 419.879,426.295 418.546,426.461 417.5,428C 418.448,428.483 419.448,428.649 420.5,428.5C 420.5,429.5 420.5,430.5 420.5,431.5C 418.473,431.338 416.473,431.505 414.5,432C 415.731,433.183 415.731,434.349 414.5,435.5C 413.914,435.291 413.414,434.957 413,434.5C 412.506,436.134 412.34,437.801 412.5,439.5C 410.857,439.48 409.524,440.147 408.5,441.5C 407.833,440.833 407.167,440.167 406.5,439.5C 406.082,443.697 403.748,445.531 399.5,445C 400.308,445.308 400.975,445.808 401.5,446.5C 400.388,447.265 399.721,448.265 399.5,449.5C 398.178,449.67 397.011,449.337 396,448.5C 395.667,449.833 395.333,451.167 395,452.5C 393.484,449.949 392.651,450.282 392.5,453.5C 387.759,455.084 383.092,457.084 378.5,459.5C 376.069,465.052 371.735,467.552 365.5,467C 366.973,467.71 367.64,468.876 367.5,470.5C 359.826,473.181 352.16,475.847 344.5,478.5C 344.5,479.5 344.5,480.5 344.5,481.5C 344.167,481.5 343.833,481.5 343.5,481.5C 335.933,482.743 328.599,484.91 321.5,488C 317.082,488.208 312.749,488.874 308.5,490C 307.695,491.113 307.028,492.279 306.5,493.5C 306.167,493.5 305.833,493.5 305.5,493.5C 288.625,494.946 271.958,496.946 255.5,499.5C 250.5,499.5 245.5,499.5 240.5,499.5C 240.389,498.883 240.056,498.383 239.5,498C 223.087,496.578 206.754,494.744 190.5,492.5C 188.162,490.96 185.495,490.294 182.5,490.5C 179.772,490.829 177.438,490.163 175.5,488.5C 173.898,486.926 171.898,486.259 169.5,486.5C 164.776,482.298 159.109,480.298 152.5,480.5C 152.063,478.926 151.063,477.759 149.5,477C 146.054,476.339 142.721,475.505 139.5,474.5C 137.216,474.025 135.216,473.025 133.5,471.5C 133.033,468.703 131.367,467.369 128.5,467.5C 128.657,466.127 128.49,464.793 128,463.5C 125.681,464.296 123.514,463.796 121.5,462C 122.357,461.311 123.023,460.478 123.5,459.5C 120.951,458.716 118.618,457.549 116.5,456C 118.271,455.465 118.604,454.631 117.5,453.5C 115.9,456.096 113.567,457.43 110.5,457.5C 109.078,457.291 107.745,456.791 106.5,456C 101.429,451.815 96.4293,447.648 91.5,443.5C 90.0892,441.086 88.0892,439.419 85.5,438.5C 84.9556,436.42 84.1223,434.42 83,432.5C 81.8904,430.963 80.3904,430.297 78.5,430.5C 78.6715,428.508 78.0049,426.842 76.5,425.5C 74.2235,424.579 71.8901,423.913 69.5,423.5C 60.224,414.279 51.8907,404.279 44.5,393.5C 44.3535,390.557 43.6868,387.724 42.5,385C 42.6465,383.273 43.3131,383.106 44.5,384.5C 45.6139,383.277 45.7805,381.944 45,380.5C 44.6121,381.428 43.9454,382.095 43,382.5C 41.0403,381.708 39.5403,380.375 38.5,378.5C 37.2638,377.754 35.9305,377.421 34.5,377.5C 34.5,377.167 34.5,376.833 34.5,376.5C 33.204,371.072 31.204,365.906 28.5,361C 28.8333,360.667 29.1667,360.333 29.5,360C 28.2341,359.691 27.0674,359.191 26,358.5C 24.8087,354.096 22.6421,350.429 19.5,347.5C 17.1406,338.726 14.4739,330.06 11.5,321.5C 10.9063,317.492 10.2396,313.492 9.5,309.5C 9.83333,308.833 10.1667,308.167 10.5,307.5C 9.09435,305.974 7.92769,304.307 7,302.5C 5.69309,295.198 4.35975,287.864 3,280.5C 2.34651,269.49 2.51318,258.49 3.5,247.5C 3.54062,242.97 2.87395,238.636 1.5,234.5C 2.03863,225.401 3.2053,216.401 5,207.5C 5.66667,210.167 6.33333,210.167 7,207.5C 7.21779,204.574 7.71779,201.74 8.5,199C 7.97814,198.439 7.6448,197.772 7.5,197C 9.92641,191.131 11.2597,184.964 11.5,178.5C 13.2286,171.803 14.8953,165.137 16.5,158.5C 18.6056,155.878 20.7723,153.211 23,150.5C 24.117,151.949 24.7837,153.616 25,155.5C 25.3047,152.503 25.138,149.503 24.5,146.5C 25.6435,142.931 26.6435,139.264 27.5,135.5C 27.5,135.167 27.5,134.833 27.5,134.5C 29.3904,134.703 30.8904,134.037 32,132.5C 33.5864,127.906 35.0864,123.239 36.5,118.5C 37.9063,118.027 38.573,117.027 38.5,115.5C 40.6174,113.084 43.1174,111.084 46,109.5C 46.4828,108.552 46.6495,107.552 46.5,106.5C 47.5,106.5 48.5,106.5 49.5,106.5C 52.8772,100.71 55.8772,94.7104 58.5,88.5C 63.807,84.0384 69.307,79.7051 75,75.5C 78.3835,70.9554 81.5502,66.2887 84.5,61.5C 85.8734,61.6567 87.2068,61.49 88.5,61C 90.3336,58.3367 92.3336,55.8367 94.5,53.5C 94.8333,52.5 95.5,51.8333 96.5,51.5C 98.1368,52.2178 99.8034,52.3845 101.5,52C 111.177,42.4513 122.844,35.2846 136.5,30.5C 139.191,32.2515 139.858,31.7515 138.5,29C 141.453,26.207 144.787,24.0403 148.5,22.5C 149.193,21.4822 149.859,20.4822 150.5,19.5C 151.167,19.5 151.833,19.5 152.5,19.5C 163.438,15.4321 174.772,12.5988 186.5,11C 187.747,8.37919 189.747,6.87919 192.5,6.5C 197.607,6.95561 202.274,5.95561 206.5,3.5C 232.804,1.20568 259.137,0.87235 285.5,2.5 Z M 270.5,98.5 C 279.055,100.47 287.722,102.47 296.5,104.5C 298.509,106.065 300.843,107.065 303.5,107.5C 320.935,114.562 336.935,124.229 351.5,136.5C 355.167,140.833 359.167,144.833 363.5,148.5C 366.152,152.482 369.152,156.149 372.5,159.5C 372.5,159.833 372.5,160.167 372.5,160.5C 376.229,165.877 379.896,171.211 383.5,176.5C 384.809,179.793 386.142,183.126 387.5,186.5C 388.866,189.232 390.199,191.899 391.5,194.5C 396.315,208.25 399.648,222.25 401.5,236.5C 401.61,248.516 401.277,260.516 400.5,272.5C 399.087,275.219 398.42,278.219 398.5,281.5C 397.422,284.402 396.756,287.402 396.5,290.5C 394.883,293.189 393.883,296.189 393.5,299.5C 391.796,302.939 390.462,306.605 389.5,310.5C 386.674,314.818 384.341,319.484 382.5,324.5C 378.669,329.489 375.336,334.822 372.5,340.5C 365.775,347.221 359.442,354.221 353.5,361.5C 351.251,362.08 349.585,363.413 348.5,365.5C 345.418,367.372 342.751,369.705 340.5,372.5C 338.973,372.427 337.973,373.094 337.5,374.5C 328.71,379.975 319.71,384.975 310.5,389.5C 288.379,398.199 265.379,402.533 241.5,402.5C 237.036,401.356 232.37,400.69 227.5,400.5C 220.08,399.202 212.747,397.535 205.5,395.5C 203.401,394.388 201.067,393.721 198.5,393.5C 197.791,392.596 196.791,392.263 195.5,392.5C 185.28,387.722 175.28,382.388 165.5,376.5C 164.71,375.599 163.71,374.932 162.5,374.5C 158.5,371.5 154.5,368.5 150.5,365.5C 149.5,363.833 148.167,362.5 146.5,361.5C 146.167,361.5 145.833,361.5 145.5,361.5C 139.493,354.494 133.493,347.494 127.5,340.5C 126.833,340.5 126.5,340.167 126.5,339.5C 126.262,337.596 125.262,336.262 123.5,335.5C 122.331,332.489 120.664,329.822 118.5,327.5C 118.573,325.973 117.906,324.973 116.5,324.5C 115.674,321.515 114.341,318.849 112.5,316.5C 110.087,310.014 107.42,303.68 104.5,297.5C 104.59,294.848 103.924,292.515 102.5,290.5C 102.5,290.167 102.5,289.833 102.5,289.5C 101.345,283.677 100.012,278.011 98.5,272.5C 96.9123,256.117 97.2457,239.784 99.5,223.5C 100.401,219.263 101.401,214.93 102.5,210.5C 102.5,209.833 102.5,209.167 102.5,208.5C 104.072,205.785 105.072,202.785 105.5,199.5C 108.403,193.35 111.07,187.016 113.5,180.5C 117.642,173.451 121.975,166.451 126.5,159.5C 127.167,159.5 127.5,159.167 127.5,158.5C 131.513,154.485 135.179,150.152 138.5,145.5C 144.228,139.767 150.228,134.433 156.5,129.5C 161.052,126.397 165.386,123.064 169.5,119.5C 169.833,119.5 170.167,119.5 170.5,119.5C 179.76,114.075 189.427,109.408 199.5,105.5C 207.586,103.355 215.586,101.355 223.5,99.5C 239.123,97.2959 254.789,96.9625 270.5,98.5 Z M 161.5,207.5 C 161.573,209.027 160.906,210.027 159.5,210.5C 159.427,208.973 160.094,207.973 161.5,207.5 Z M 257.5,209.5 C 273.227,213.559 283.893,223.226 289.5,238.5C 292.237,253.223 288.904,266.223 279.5,277.5C 278.167,277.5 277.5,278.167 277.5,279.5C 274.159,281.503 270.825,283.503 267.5,285.5C 260.118,288.195 252.451,289.195 244.5,288.5C 232.076,285.729 222.409,279.062 215.5,268.5C 214.696,265.421 213.696,262.421 212.5,259.5C 208.589,235.66 217.923,219.327 240.5,210.5C 246.13,209.708 251.797,209.375 257.5,209.5 Z M 159.5,210.5 C 157.776,214.675 156.443,219.008 155.5,223.5C 154.207,224.842 153.374,226.509 153,228.5C 151.659,236.314 151.492,243.981 152.5,251.5C 152.813,255.042 152.479,258.375 151.5,261.5C 149.589,261.426 148.422,260.426 148,258.5C 146.288,245.353 147.955,232.687 153,220.5C 154.942,216.931 157.108,213.598 159.5,210.5 Z M 171.5,212.5 C 169.707,215.634 168.374,218.967 167.5,222.5C 166.044,225.614 164.878,228.948 164,232.5C 163.21,241.036 163.377,249.536 164.5,258C 163.055,261.137 161.222,261.303 159,258.5C 157.092,245.556 158.926,233.223 164.5,221.5C 165.345,220.329 166.011,218.995 166.5,217.5C 167.855,215.479 169.521,213.812 171.5,212.5 Z M 347.5,283.5 C 344.89,288.109 341.89,292.442 338.5,296.5C 341.395,290.712 343.728,284.712 345.5,278.5C 346.748,275.058 347.581,271.392 348,267.5C 348.429,259.809 348.429,252.143 348,244.5C 349.587,243.273 350.921,243.606 352,245.5C 353.549,258.556 352.049,271.223 347.5,283.5 Z M 342.5,249.5 C 342.5,250.167 342.5,250.833 342.5,251.5C 342.442,267.68 337.442,282.013 327.5,294.5C 327.167,294.5 326.833,294.5 326.5,294.5C 327.758,292.313 328.758,289.98 329.5,287.5C 332.094,283.97 333.928,279.97 335,275.5C 335.497,273.19 335.663,270.857 335.5,268.5C 338.167,262.5 338.167,256.5 335.5,250.5C 335.5,248.5 335.5,246.5 335.5,244.5C 339.886,243.574 342.22,245.241 342.5,249.5 Z M 326.5,294.5 C 326.167,295.5 325.5,296.167 324.5,296.5C 324.5,295.167 325.167,294.5 326.5,294.5 Z M 338.5,296.5 C 338.262,298.404 337.262,299.738 335.5,300.5C 335.738,298.596 336.738,297.262 338.5,296.5 Z"/></g>
<g><path style="opacity:0.867" fill="#854e9b" d="M 206.5,3.5 C 202.274,5.95561 197.607,6.95561 192.5,6.5C 196.862,4.65621 201.529,3.65621 206.5,3.5 Z"/></g>
<g><path style="opacity:0.557" fill="#9559ac" d="M 306.5,6.5 C 311.077,6.92506 315.41,7.92506 319.5,9.5C 314.778,9.62619 310.445,8.62619 306.5,6.5 Z"/></g>
<g><path style="opacity:1" fill="#773493" d="M 286.5,2.5 C 293.468,2.9601 300.134,4.29343 306.5,6.5C 310.445,8.62619 314.778,9.62619 319.5,9.5C 325.417,11.054 331.083,13.054 336.5,15.5C 336.5,16.1667 336.5,16.8333 336.5,17.5C 331.071,14.9026 325.405,12.736 319.5,11C 314.156,10.5293 308.822,10.0293 303.5,9.5C 303.5,8.5 303.5,7.5 303.5,6.5C 300.813,6.66409 298.146,6.49742 295.5,6C 292.353,5.04362 289.353,3.87695 286.5,2.5 Z"/></g>
<g><path style="opacity:0.941" fill="#7d4197" d="M 192.5,6.5 C 189.747,6.87919 187.747,8.37919 186.5,11C 174.772,12.5988 163.438,15.4321 152.5,19.5C 154.121,17.8828 156.121,16.7162 158.5,16C 169.595,11.8936 180.928,8.7269 192.5,6.5 Z"/></g>
<g><path style="opacity:0.741" fill="#8c57a1" d="M 336.5,15.5 C 341.357,16.5083 346.024,18.0083 350.5,20C 352.431,20.9022 354.097,22.0688 355.5,23.5C 349.298,21.2407 342.965,19.2407 336.5,17.5C 336.5,16.8333 336.5,16.1667 336.5,15.5 Z"/></g>
<g><path style="opacity:0.761" fill="#8c5ca3" d="M 358.5,24.5 C 362.424,26.1321 366.09,28.1321 369.5,30.5C 364.812,30.0991 361.146,28.0991 358.5,24.5 Z"/></g>
<g><path style="opacity:0.565" fill="#a675b4" d="M 133.5,27.5 C 132.191,30.4507 129.857,31.7841 126.5,31.5C 128.791,30.235 131.125,28.9017 133.5,27.5 Z"/></g>
<g><path style="opacity:0.188" fill="#b99dd5" d="M 118.5,36.5 C 118.027,37.9063 117.027,38.573 115.5,38.5C 115.973,37.0937 116.973,36.427 118.5,36.5 Z"/></g>
<g><path style="opacity:0.992" fill="#84499a" d="M 371.5,31.5 C 379.519,35.171 386.852,39.8377 393.5,45.5C 392.05,46.6576 391.05,46.1576 390.5,44C 384.769,40.3008 378.769,36.9674 372.5,34C 371.748,33.3292 371.414,32.4959 371.5,31.5 Z"/></g>
<g><path style="opacity:1" fill="#753194" d="M 150.5,19.5 C 149.859,20.4822 149.193,21.4822 148.5,22.5C 144.787,24.0403 141.453,26.207 138.5,29C 139.858,31.7515 139.191,32.2515 136.5,30.5C 122.844,35.2846 111.177,42.4513 101.5,52C 99.8034,52.3845 98.1368,52.2178 96.5,51.5C 102.554,46.7833 108.887,42.45 115.5,38.5C 117.027,38.573 118.027,37.9063 118.5,36.5C 121.088,34.8419 123.755,33.1752 126.5,31.5C 129.857,31.7841 132.191,30.4507 133.5,27.5C 139.167,24.8333 144.833,22.1667 150.5,19.5 Z"/></g>
<g><path style="opacity:0.982" fill="#82459a" d="M 394.5,45.5 C 398.98,48.3858 402.98,51.7192 406.5,55.5C 400.37,54.7451 396.37,51.4118 394.5,45.5 Z"/></g>
<g><path style="opacity:0.98" fill="#874d9d" d="M 94.5,53.5 C 92.3336,55.8367 90.3336,58.3367 88.5,61C 87.2068,61.49 85.8734,61.6567 84.5,61.5C 87.5393,58.4602 90.8726,55.7935 94.5,53.5 Z"/></g>
<g><path style="opacity:0.973" fill="#7c3d97" d="M 407.5,55.5 C 413.509,59.8448 418.843,64.8448 423.5,70.5C 420.833,69.8333 418.167,69.1667 415.5,68.5C 415.657,67.1266 415.49,65.7932 415,64.5C 411.551,62.2563 409.051,59.2563 407.5,55.5 Z"/></g>
<g><path style="opacity:0.18" fill="#d0b6da" d="M 424.5,70.5 C 425.833,71.1667 426.833,72.1667 427.5,73.5C 426.391,73.4431 425.391,73.1098 424.5,72.5C 424.5,71.8333 424.5,71.1667 424.5,70.5 Z"/></g>
<g><path style="opacity:0.184" fill="#be9dc9" d="M 75.5,70.5 C 74.1667,72.5 72.5,74.1667 70.5,75.5C 71.1667,72.8333 72.8333,71.1667 75.5,70.5 Z"/></g>
<g><path style="opacity:1" fill="#73318e" d="M 84.5,61.5 C 81.5502,66.2887 78.3835,70.9554 75,75.5C 69.307,79.7051 63.807,84.0384 58.5,88.5C 60.0663,85.5877 62.0663,82.921 64.5,80.5C 66.2469,78.41 68.2469,76.7433 70.5,75.5C 72.5,74.1667 74.1667,72.5 75.5,70.5C 78.1185,67.2148 81.1185,64.2148 84.5,61.5 Z"/></g>
<g><path style="opacity:1" fill="#773095" d="M 424.5,72.5 C 425.391,73.1098 426.391,73.4431 427.5,73.5C 432.2,78.199 436.534,83.199 440.5,88.5C 437.907,86.2775 434.907,84.7775 431.5,84C 430.663,82.9887 430.33,81.8221 430.5,80.5C 429.167,80.5 427.833,80.5 426.5,80.5C 426.416,77.6726 425.75,75.006 424.5,72.5 Z"/></g>
<g><path style="opacity:1" fill="#773496" d="M 58.5,88.5 C 55.8772,94.7104 52.8772,100.71 49.5,106.5C 48.5,106.5 47.5,106.5 46.5,106.5C 46.6495,107.552 46.4828,108.552 46,109.5C 43.1174,111.084 40.6174,113.084 38.5,115.5C 43.6314,105.368 50.2981,96.3678 58.5,88.5 Z"/></g>
<g><path style="opacity:1" fill="#793497" d="M 440.5,88.5 C 447.647,95.6461 453.647,103.646 458.5,112.5C 458.427,114.027 459.094,115.027 460.5,115.5C 462.669,117.34 464.002,119.674 464.5,122.5C 462.883,121.962 461.216,121.629 459.5,121.5C 459.386,117.789 458.386,114.455 456.5,111.5C 455.5,111.5 454.5,111.5 453.5,111.5C 453.649,112.552 453.483,113.552 453,114.5C 452.682,112.939 451.849,111.772 450.5,111C 451.804,110.196 452.471,109.029 452.5,107.5C 451.668,102.973 449.001,100.473 444.5,100C 443.386,98.4301 442.053,97.0968 440.5,96C 441.428,95.6121 442.095,94.9454 442.5,94C 441.68,92.1997 441.014,90.3664 440.5,88.5 Z"/></g>
<g><path style="opacity:0.118" fill="#c19ed1" d="M 458.5,112.5 C 459.906,112.973 460.573,113.973 460.5,115.5C 459.094,115.027 458.427,114.027 458.5,112.5 Z"/></g>
<g><path style="opacity:0.102" fill="#bfa0d3" d="M 38.5,115.5 C 38.573,117.027 37.9063,118.027 36.5,118.5C 36.427,116.973 37.0937,115.973 38.5,115.5 Z"/></g>
<g><path style="opacity:0.969" fill="#864d9d" d="M 464.5,122.5 C 466.955,124.632 468.621,127.299 469.5,130.5C 467.968,129.323 466.468,127.989 465,126.5C 464.51,125.207 464.343,123.873 464.5,122.5 Z"/></g>
<g><path style="opacity:1" fill="#7f4099" d="M 36.5,118.5 C 35.0864,123.239 33.5864,127.906 32,132.5C 30.8904,134.037 29.3904,134.703 27.5,134.5C 29.74,128.629 32.74,123.296 36.5,118.5 Z"/></g>
<g><path style="opacity:1" fill="#783d95" d="M 469.5,130.5 C 473.792,137.365 477.125,144.698 479.5,152.5C 476.258,150.97 474.758,148.304 475,144.5C 471.349,140.574 469.515,135.907 469.5,130.5 Z"/></g>
<g><path style="opacity:1" fill="#7b3997" d="M 27.5,135.5 C 26.6435,139.264 25.6435,142.931 24.5,146.5C 25.138,149.503 25.3047,152.503 25,155.5C 24.7837,153.616 24.117,151.949 23,150.5C 20.7723,153.211 18.6056,155.878 16.5,158.5C 18.8934,150.052 22.5601,142.386 27.5,135.5 Z"/></g>
<g><path style="opacity:0.924" fill="#83489a" d="M 480.5,153.5 C 482.871,158.265 484.871,163.265 486.5,168.5C 485.504,168.586 484.671,168.252 484,167.5C 481.875,163.089 480.708,158.422 480.5,153.5 Z"/></g>
<g><path style="opacity:0.976" fill="#864d9d" d="M 16.5,158.5 C 14.8953,165.137 13.2286,171.803 11.5,178.5C 10.8333,178.5 10.1667,178.5 9.5,178.5C 11.2334,171.535 13.5668,164.868 16.5,158.5 Z"/></g>
<g><path style="opacity:0.922" fill="#84489a" d="M 486.5,170.5 C 489.661,177.068 491.661,184.068 492.5,191.5C 491.414,191.38 490.747,190.713 490.5,189.5C 488.953,183.197 487.62,176.864 486.5,170.5 Z"/></g>
<g><path style="opacity:1" fill="#6d1792" d="M 309.5,393.5 C 309.433,392.041 309.766,390.708 310.5,389.5C 314.553,388.987 318.553,388.154 322.5,387C 323.167,386 323.833,385 324.5,384C 330,382.267 334.334,379.1 337.5,374.5C 337.973,373.094 338.973,372.427 340.5,372.5C 342.697,371.155 345.03,369.989 347.5,369C 348.337,367.989 348.67,366.822 348.5,365.5C 349.167,365.5 349.833,365.5 350.5,365.5C 352.722,365.178 354.556,365.845 356,367.5C 356.374,366.584 356.874,365.75 357.5,365C 356.557,359.756 358.89,356.922 364.5,356.5C 364.12,351.89 366.12,349.224 370.5,348.5C 370.963,345.779 371.629,343.112 372.5,340.5C 374.386,339.639 376.22,338.639 378,337.5C 379.793,333.23 381.293,328.896 382.5,324.5C 384.341,319.484 386.674,314.818 389.5,310.5C 390.458,310.047 391.292,309.381 392,308.5C 392.198,306.618 392.698,304.952 393.5,303.5C 394.397,302.402 395.23,302.402 396,303.5C 396.374,302.584 396.874,301.75 397.5,301C 396.424,299.274 396.257,297.441 397,295.5C 397.317,297.301 397.984,297.634 399,296.5C 399.562,294.134 399.396,291.801 398.5,289.5C 399.981,285.575 401.147,281.575 402,277.5C 403.355,262.854 403.688,248.188 403,233.5C 402.617,232.944 402.117,232.611 401.5,232.5C 401.226,222.317 399.726,212.317 397,202.5C 395.365,199.517 393.532,196.851 391.5,194.5C 391.662,192.473 391.495,190.473 391,188.5C 390.29,187.027 389.124,186.36 387.5,186.5C 386.142,183.126 384.809,179.793 383.5,176.5C 381.968,170.912 379.301,165.912 375.5,161.5C 374.583,160.873 373.583,160.539 372.5,160.5C 372.5,160.167 372.5,159.833 372.5,159.5C 373.306,157.836 372.973,156.169 371.5,154.5C 369.474,153.63 368.141,152.13 367.5,150C 366.255,149.209 364.922,148.709 363.5,148.5C 359.167,144.833 355.167,140.833 351.5,136.5C 347.868,131.533 343.868,126.867 339.5,122.5C 337.5,121.833 335.5,121.167 333.5,120.5C 334.167,119.5 334.833,118.5 335.5,117.5C 334.47,117.446 333.303,117.112 332,116.5C 331.383,115.551 331.549,114.718 332.5,114C 328.7,111.158 324.867,110.992 321,113.5C 320.255,112.01 319.088,111.01 317.5,110.5C 313.031,108.549 308.365,107.549 303.5,107.5C 301.824,105.166 299.491,104.166 296.5,104.5C 295.571,103.685 294.571,102.852 293.5,102C 286.025,99.5551 278.358,98.3884 270.5,98.5C 254.789,96.9625 239.123,97.2959 223.5,99.5C 219.486,99.3345 215.486,99.5012 211.5,100C 207.136,101.309 203.136,103.142 199.5,105.5C 194.792,106.176 190.125,107.176 185.5,108.5C 181.96,110.855 178.127,112.855 174,114.5C 172.18,113.516 170.68,113.683 169.5,115C 170.38,116.356 170.714,117.856 170.5,119.5C 170.167,119.5 169.833,119.5 169.5,119.5C 166.783,120.305 164.283,121.638 162,123.5C 160.234,124.233 158.401,124.567 156.5,124.5C 156.5,126.167 156.5,127.833 156.5,129.5C 154.52,128.152 153.353,126.152 153,123.5C 152.503,126.146 152.336,128.813 152.5,131.5C 150.833,131.5 149.167,131.5 147.5,131.5C 147.579,132.93 147.246,134.264 146.5,135.5C 144.437,137.321 141.937,138.987 139,140.5C 138.506,142.134 138.34,143.801 138.5,145.5C 135.625,146.623 132.625,147.456 129.5,148C 131.405,148.826 131.739,149.993 130.5,151.5C 129.549,150.674 128.549,150.508 127.5,151C 128.574,151.739 129.241,152.739 129.5,154C 128.293,155.3 127.626,156.8 127.5,158.5C 127.5,159.167 127.167,159.5 126.5,159.5C 126.44,158.957 126.107,158.624 125.5,158.5C 123.352,160.811 121.852,163.478 121,166.5C 120.333,165.833 119.667,165.167 119,164.5C 118.505,166.473 118.338,168.473 118.5,170.5C 115.162,170.109 114.162,171.276 115.5,174C 113.997,175.921 113.331,178.088 113.5,180.5C 112.624,180.369 111.957,180.702 111.5,181.5C 110.241,185.186 108.574,188.686 106.5,192C 105.678,194.434 105.344,196.934 105.5,199.5C 104.25,199.577 103.417,200.244 103,201.5C 102.503,203.81 102.337,206.143 102.5,208.5C 102.5,209.167 102.5,209.833 102.5,210.5C 99.8393,214.31 98.8393,218.644 99.5,223.5C 97.2457,239.784 96.9123,256.117 98.5,272.5C 98.369,277.978 99.2023,283.311 101,288.5C 101.383,289.056 101.883,289.389 102.5,289.5C 102.5,289.833 102.5,290.167 102.5,290.5C 102.41,293.152 103.076,295.485 104.5,297.5C 104.209,305.234 106.876,311.567 112.5,316.5C 112.337,318.857 112.503,321.19 113,323.5C 115.333,326.833 117.667,330.167 120,333.5C 121.113,334.305 122.279,334.972 123.5,335.5C 123.738,337.404 124.738,338.738 126.5,339.5C 126.5,340.167 126.833,340.5 127.5,340.5C 127.754,343.014 128.587,345.348 130,347.5C 134.009,349.855 135.342,353.188 134,357.5C 137.113,356.136 139.279,357.136 140.5,360.5C 142.045,361.452 143.712,361.785 145.5,361.5C 145.833,361.5 146.167,361.5 146.5,361.5C 146.525,364.179 147.858,365.512 150.5,365.5C 154.5,368.5 158.5,371.5 162.5,374.5C 162.821,376.048 163.821,376.715 165.5,376.5C 167.606,379.11 169.94,381.61 172.5,384C 179.104,386.478 185.437,389.312 191.5,392.5C 188.833,392.833 186.167,393.167 183.5,393.5C 183.5,394.833 183.5,396.167 183.5,397.5C 180.843,397.838 178.51,397.171 176.5,395.5C 175.571,396.689 175.238,398.022 175.5,399.5C 174.167,399.5 172.833,399.5 171.5,399.5C 170.745,396.488 169.412,393.822 167.5,391.5C 165.833,391.5 164.167,391.5 162.5,391.5C 162.5,390.167 162.5,388.833 162.5,387.5C 158.625,388.126 156.791,386.459 157,382.5C 156,381.5 155,380.5 154,379.5C 151.3,381.269 148.466,382.602 145.5,383.5C 144.413,379.277 143.413,374.944 142.5,370.5C 140.167,369.004 138.167,367.17 136.5,365C 135.552,364.517 134.552,364.351 133.5,364.5C 133.833,367.5 132.5,368.833 129.5,368.5C 129.437,365.343 128.437,362.509 126.5,360C 127.448,359.517 128.448,359.351 129.5,359.5C 128.454,355.916 127.621,352.25 127,348.5C 125.139,349.764 123.139,350.764 121,351.5C 118.434,348.156 115.934,347.99 113.5,351C 111.527,351.495 109.527,351.662 107.5,351.5C 106.533,343.255 104.866,335.088 102.5,327C 103.334,323.335 104.667,319.835 106.5,316.5C 105.675,315.614 104.675,315.281 103.5,315.5C 104.167,319.5 102.5,321.167 98.5,320.5C 96.9534,314.823 96.6201,309.157 97.5,303.5C 94.8333,303.5 92.1667,303.5 89.5,303.5C 89.487,294.063 88.487,284.729 86.5,275.5C 87.3317,268.859 87.6651,262.192 87.5,255.5C 86.1667,255.5 84.8333,255.5 83.5,255.5C 83.5,239.5 83.5,223.5 83.5,207.5C 84.8333,207.5 86.1667,207.5 87.5,207.5C 88.3641,202.266 88.3641,196.933 87.5,191.5C 89.8333,191.5 92.1667,191.5 94.5,191.5C 94.5,188.833 94.5,186.167 94.5,183.5C 96.1667,183.5 97.8333,183.5 99.5,183.5C 99.1866,180.753 99.52,178.086 100.5,175.5C 101.167,176.167 101.833,176.833 102.5,177.5C 103.496,171.537 103.829,165.537 103.5,159.5C 107.219,158.772 110.219,159.772 112.5,162.5C 112.833,161.667 113.167,160.833 113.5,160C 111.956,156.661 111.29,153.161 111.5,149.5C 114.212,149.737 116.712,149.737 119,149.5C 119.507,148.004 119.007,146.837 117.5,146C 118.646,145.355 119.646,144.522 120.5,143.5C 121.214,138.482 121.881,133.482 122.5,128.5C 124.347,127.17 125.847,127.503 127,129.5C 127.333,128.5 127.667,127.5 128,126.5C 128.333,126.833 128.667,127.167 129,127.5C 127.596,129.832 126.762,132.499 126.5,135.5C 127.873,135.657 129.207,135.49 130.5,135C 133.888,132.214 136.554,128.881 138.5,125C 140.367,124.289 141.867,124.789 143,126.5C 143.497,124.19 143.663,121.857 143.5,119.5C 146.214,119.25 148.881,119.083 151.5,119C 150.692,119.308 150.025,119.808 149.5,120.5C 152.967,123.158 155.3,122.825 156.5,119.5C 158.539,120.359 159.872,119.526 160.5,117C 160.265,116.127 159.931,115.293 159.5,114.5C 161.117,114.331 162.784,113.997 164.5,113.5C 163.579,111.244 161.912,110.244 159.5,110.5C 159.244,108.208 159.577,106.041 160.5,104C 166.167,103.667 171.833,103.333 177.5,103C 175.152,101.312 174.985,99.4783 177,97.5C 179.324,98.8448 181.658,99.1782 184,98.5C 186.022,99.7865 188.189,100.786 190.5,101.5C 194.637,99.3735 198.97,97.7069 203.5,96.5C 199.738,93.7904 196.071,93.9571 192.5,97C 189.294,97.8902 186.294,97.5569 183.5,96C 186.014,94.7475 188.68,94.2475 191.5,94.5C 191.5,92.8333 191.5,91.1667 191.5,89.5C 202.094,88.1996 212.761,87.5329 223.5,87.5C 223.5,86.1667 223.5,84.8333 223.5,83.5C 239.5,83.5 255.5,83.5 271.5,83.5C 271.5,84.5 271.5,85.5 271.5,86.5C 282.096,88.1476 292.763,89.1476 303.5,89.5C 303.5,91.1667 303.5,92.8333 303.5,94.5C 306.601,94.6917 309.601,95.3584 312.5,96.5C 315.975,94.2795 319.642,93.9461 323.5,95.5C 325.291,100.638 328.625,104.638 333.5,107.5C 336.642,105.881 339.975,105.215 343.5,105.5C 343.5,106.5 343.5,107.5 343.5,108.5C 346.167,108.5 348.833,108.5 351.5,108.5C 351.5,110.5 351.5,112.5 351.5,114.5C 349.058,114.881 348.391,114.214 349.5,112.5C 347.335,110.233 345.335,110.233 343.5,112.5C 346.458,114.956 349.291,117.622 352,120.5C 352.334,122.847 352.167,125.181 351.5,127.5C 353.199,127.34 354.866,127.506 356.5,128C 355.62,129.356 355.286,130.856 355.5,132.5C 361.146,132.849 361.813,131.349 357.5,128C 358.43,127.009 359.596,126.509 361,126.5C 363.154,128.488 365.654,129.822 368.5,130.5C 368.714,132.144 368.38,133.644 367.5,135C 365.655,134.217 363.655,133.884 361.5,134C 363.355,135.855 365.188,137.688 367,139.5C 372.307,136.773 377.474,136.939 382.5,140C 383.76,141.814 383.76,143.647 382.5,145.5C 381.086,144.376 379.586,143.376 378,142.5C 377.308,143.025 376.808,143.692 376.5,144.5C 377.97,147.796 380.137,150.463 383,152.5C 383.014,154.598 382.847,156.431 382.5,158C 384.025,159.009 385.692,159.509 387.5,159.5C 387.5,160.5 387.5,161.5 387.5,162.5C 388.833,162.5 390.167,162.5 391.5,162.5C 391.5,164.167 391.5,165.833 391.5,167.5C 393.365,169.115 396.032,170.448 399.5,171.5C 399.59,173.696 399.923,175.863 400.5,178C 399.5,180.333 398.5,182.667 397.5,185C 398.435,187.316 399.602,189.482 401,191.5C 401.388,190.572 402.055,189.905 403,189.5C 404.3,190.707 405.8,191.374 407.5,191.5C 407.187,199.663 408.187,207.663 410.5,215.5C 411.833,216.833 413.167,218.167 414.5,219.5C 415.491,223.445 415.824,227.445 415.5,231.5C 411.921,231.766 411.587,233.099 414.5,235.5C 416.265,247.508 416.431,259.508 415,271.5C 413.222,261.348 412.388,251.015 412.5,240.5C 411.5,240.5 410.5,240.5 409.5,240.5C 409.802,252.689 411.135,264.689 413.5,276.5C 413.513,280.124 412.18,283.124 409.5,285.5C 410.768,287.047 412.435,288.047 414.5,288.5C 415.386,289.325 415.719,290.325 415.5,291.5C 414.022,291.238 412.689,291.571 411.5,292.5C 409.167,294.833 406.833,297.167 404.5,299.5C 403.571,300.689 403.238,302.022 403.5,303.5C 402.5,303.5 401.5,303.5 400.5,303.5C 400.728,301.645 400.061,300.812 398.5,301C 398.824,305.31 399.157,310.143 399.5,315.5C 397.974,322.092 396.641,328.758 395.5,335.5C 393.278,335.178 391.444,335.845 390,337.5C 389.774,341.887 389.274,346.221 388.5,350.5C 382.513,353.853 377.179,358.187 372.5,363.5C 371.571,364.689 371.238,366.022 371.5,367.5C 369.5,366.833 367.5,366.167 365.5,365.5C 366.167,367.5 366.833,369.5 367.5,371.5C 361.644,373.683 357.311,377.683 354.5,383.5C 353.914,383.291 353.414,382.957 353,382.5C 352.205,384.901 351.038,387.068 349.5,389C 344.692,388.928 340.192,389.761 336,391.5C 335.586,391.043 335.086,390.709 334.5,390.5C 331.622,394.524 327.789,397.19 323,398.5C 321.253,397.67 319.587,396.67 318,395.5C 314.969,396.203 312.136,395.536 309.5,393.5 Z M 161.5,207.5 C 161.573,209.027 160.906,210.027 159.5,210.5C 159.427,208.973 160.094,207.973 161.5,207.5 Z M 257.5,209.5 C 273.227,213.559 283.893,223.226 289.5,238.5C 292.237,253.223 288.904,266.223 279.5,277.5C 278.167,277.5 277.5,278.167 277.5,279.5C 274.159,281.503 270.825,283.503 267.5,285.5C 260.118,288.195 252.451,289.195 244.5,288.5C 232.076,285.729 222.409,279.062 215.5,268.5C 214.696,265.421 213.696,262.421 212.5,259.5C 208.589,235.66 217.923,219.327 240.5,210.5C 246.13,209.708 251.797,209.375 257.5,209.5 Z M 159.5,210.5 C 157.776,214.675 156.443,219.008 155.5,223.5C 154.207,224.842 153.374,226.509 153,228.5C 151.659,236.314 151.492,243.981 152.5,251.5C 152.813,255.042 152.479,258.375 151.5,261.5C 149.589,261.426 148.422,260.426 148,258.5C 146.288,245.353 147.955,232.687 153,220.5C 154.942,216.931 157.108,213.598 159.5,210.5 Z M 171.5,212.5 C 169.707,215.634 168.374,218.967 167.5,222.5C 166.044,225.614 164.878,228.948 164,232.5C 163.21,241.036 163.377,249.536 164.5,258C 163.055,261.137 161.222,261.303 159,258.5C 157.092,245.556 158.926,233.223 164.5,221.5C 165.345,220.329 166.011,218.995 166.5,217.5C 167.855,215.479 169.521,213.812 171.5,212.5 Z M 347.5,283.5 C 344.89,288.109 341.89,292.442 338.5,296.5C 341.395,290.712 343.728,284.712 345.5,278.5C 346.748,275.058 347.581,271.392 348,267.5C 348.429,259.809 348.429,252.143 348,244.5C 349.587,243.273 350.921,243.606 352,245.5C 353.549,258.556 352.049,271.223 347.5,283.5 Z M 342.5,249.5 C 342.5,250.167 342.5,250.833 342.5,251.5C 342.442,267.68 337.442,282.013 327.5,294.5C 327.167,294.5 326.833,294.5 326.5,294.5C 327.758,292.313 328.758,289.98 329.5,287.5C 332.094,283.97 333.928,279.97 335,275.5C 335.497,273.19 335.663,270.857 335.5,268.5C 338.167,262.5 338.167,256.5 335.5,250.5C 335.5,248.5 335.5,246.5 335.5,244.5C 339.886,243.574 342.22,245.241 342.5,249.5 Z M 326.5,294.5 C 326.167,295.5 325.5,296.167 324.5,296.5C 324.5,295.167 325.167,294.5 326.5,294.5 Z M 338.5,296.5 C 338.262,298.404 337.262,299.738 335.5,300.5C 335.738,298.596 336.738,297.262 338.5,296.5 Z"/></g>
<g><path style="opacity:1" fill="#69a760" d="M 358.5,167.5 C 369.863,180.893 377.53,196.227 381.5,213.5C 380.5,213.5 379.5,213.5 378.5,213.5C 378.923,212.735 379.257,211.902 379.5,211C 374.871,201.646 370.704,192.146 367,182.5C 365.915,181.707 364.748,181.04 363.5,180.5C 362.085,176.015 360.419,171.682 358.5,167.5 Z"/></g>
<g><path style="opacity:1" fill="#3ea566" d="M 228.5,165.5 C 231.221,168.902 232.721,172.902 233,177.5C 233.743,175.355 234.576,175.189 235.5,177C 234.982,178.626 234.648,180.293 234.5,182C 236.106,187.316 237.106,192.816 237.5,198.5C 236.349,196.221 235.349,193.888 234.5,191.5C 232.015,182.986 230.015,174.319 228.5,165.5 Z"/></g>
<g><path style="opacity:1" fill="#824799" d="M 126.5,159.5 C 121.975,166.451 117.642,173.451 113.5,180.5C 113.331,178.088 113.997,175.921 115.5,174C 114.162,171.276 115.162,170.109 118.5,170.5C 118.338,168.473 118.505,166.473 119,164.5C 119.667,165.167 120.333,165.833 121,166.5C 121.852,163.478 123.352,160.811 125.5,158.5C 126.107,158.624 126.44,158.957 126.5,159.5 Z"/></g>
<g><path style="opacity:0.984" fill="#77428f" d="M 372.5,160.5 C 373.583,160.539 374.583,160.873 375.5,161.5C 379.301,165.912 381.968,170.912 383.5,176.5C 379.896,171.211 376.229,165.877 372.5,160.5 Z"/></g>
<g><path style="opacity:0.997" fill="#5ea955" d="M 344.5,151.5 C 350.278,155.94 354.945,161.273 358.5,167.5C 355.96,166.253 353.294,165.253 350.5,164.5C 349.233,159.809 347.233,155.476 344.5,151.5 Z"/></g>
<g><path style="opacity:1" fill="#3ea563" d="M 222.5,143.5 C 223.628,146.405 225.295,149.072 227.5,151.5C 228.493,156.12 228.827,160.786 228.5,165.5C 226.499,159.447 224.499,153.447 222.5,147.5C 222.5,146.167 222.5,144.833 222.5,143.5 Z"/></g>
<g><path style="opacity:1" fill="#804399" d="M 138.5,145.5 C 135.179,150.152 131.513,154.485 127.5,158.5C 127.626,156.8 128.293,155.3 129.5,154C 129.241,152.739 128.574,151.739 127.5,151C 128.549,150.508 129.549,150.674 130.5,151.5C 131.739,149.993 131.405,148.826 129.5,148C 132.625,147.456 135.625,146.623 138.5,145.5 Z"/></g>
<g><path style="opacity:0.988" fill="#794192" d="M 363.5,148.5 C 364.922,148.709 366.255,149.209 367.5,150C 368.141,152.13 369.474,153.63 371.5,154.5C 372.973,156.169 373.306,157.836 372.5,159.5C 369.152,156.149 366.152,152.482 363.5,148.5 Z"/></g>
<g><path style="opacity:1" fill="#1d9da8" d="M 215.5,123.5 C 218.872,129.767 221.205,136.434 222.5,143.5C 222.5,144.833 222.5,146.167 222.5,147.5C 221.336,142.669 219.503,138.003 217,133.5C 216.39,130.173 215.89,126.839 215.5,123.5 Z"/></g>
<g><path style="opacity:1" fill="#059cda" d="M 215.5,117.5 C 215.5,119.5 215.5,121.5 215.5,123.5C 215.89,126.839 216.39,130.173 217,133.5C 219.503,138.003 221.336,142.669 222.5,147.5C 224.499,153.447 226.499,159.447 228.5,165.5C 230.015,174.319 232.015,182.986 234.5,191.5C 234.813,194.247 234.48,196.914 233.5,199.5C 230.705,201.185 227.705,202.351 224.5,203C 223.748,203.671 223.414,204.504 223.5,205.5C 202.795,217.938 194.795,236.271 199.5,260.5C 195.599,261.641 191.599,262.474 187.5,263C 185.965,265.253 183.965,266.753 181.5,267.5C 176.178,268.029 170.844,268.529 165.5,269C 164.643,269.689 163.977,270.522 163.5,271.5C 150.701,274.347 138.701,277.347 127.5,280.5C 127.33,279.178 127.663,278.011 128.5,277C 125.874,274.971 124.874,275.805 125.5,279.5C 123.5,279.833 121.5,280.167 119.5,280.5C 119.34,278.801 119.506,277.134 120,275.5C 122.947,272.274 123.781,268.608 122.5,264.5C 122.017,267.823 120.517,270.49 118,272.5C 116.212,265.963 115.379,259.296 115.5,252.5C 116.271,240.688 117.437,229.021 119,217.5C 119.192,219.577 119.692,221.577 120.5,223.5C 121.506,220.48 122.839,217.647 124.5,215C 123.536,213.036 122.203,211.37 120.5,210C 121.233,208.234 121.567,206.401 121.5,204.5C 137.78,159.219 169.113,130.219 215.5,117.5 Z M 161.5,207.5 C 161.573,209.027 160.906,210.027 159.5,210.5C 159.427,208.973 160.094,207.973 161.5,207.5 Z M 159.5,210.5 C 157.776,214.675 156.443,219.008 155.5,223.5C 154.207,224.842 153.374,226.509 153,228.5C 151.659,236.314 151.492,243.981 152.5,251.5C 152.813,255.042 152.479,258.375 151.5,261.5C 149.589,261.426 148.422,260.426 148,258.5C 146.288,245.353 147.955,232.687 153,220.5C 154.942,216.931 157.108,213.598 159.5,210.5 Z M 171.5,212.5 C 169.707,215.634 168.374,218.967 167.5,222.5C 166.044,225.614 164.878,228.948 164,232.5C 163.21,241.036 163.377,249.536 164.5,258C 163.055,261.137 161.222,261.303 159,258.5C 157.092,245.556 158.926,233.223 164.5,221.5C 165.345,220.329 166.011,218.995 166.5,217.5C 167.855,215.479 169.521,213.812 171.5,212.5 Z"/></g>
<g><path style="opacity:1" fill="#804399" d="M 156.5,129.5 C 150.228,134.433 144.228,139.767 138.5,145.5C 138.34,143.801 138.506,142.134 139,140.5C 141.937,138.987 144.437,137.321 146.5,135.5C 147.246,134.264 147.579,132.93 147.5,131.5C 149.167,131.5 150.833,131.5 152.5,131.5C 152.336,128.813 152.503,126.146 153,123.5C 153.353,126.152 154.52,128.152 156.5,129.5 Z"/></g>
<g><path style="opacity:0.89" fill="#7ab271" d="M 312.5,128.5 C 316.455,129.811 320.121,131.644 323.5,134C 326.02,135.697 328.353,137.53 330.5,139.5C 325.054,137.216 319.721,134.716 314.5,132C 313.695,130.887 313.028,129.721 312.5,128.5 Z"/></g>
<g><path style="opacity:1" fill="#47a65e" d="M 233.5,114.5 C 228.082,115.962 222.748,117.628 217.5,119.5C 217.298,121.989 217.798,124.323 219,126.5C 219.333,126.167 219.667,125.833 220,125.5C 221.29,131.446 222.123,137.446 222.5,143.5C 221.205,136.434 218.872,129.767 215.5,123.5C 215.5,121.5 215.5,119.5 215.5,117.5C 221.129,115.062 227.129,114.062 233.5,114.5 Z"/></g>
<g><path style="opacity:0.518" fill="#7baf73" d="M 292.5,119.5 C 299.012,121.928 305.345,124.595 311.5,127.5C 304.004,127.127 297.671,124.46 292.5,119.5 Z"/></g>
<g><path style="opacity:0.627" fill="#87559d" d="M 169.5,119.5 C 165.386,123.064 161.052,126.397 156.5,129.5C 156.5,127.833 156.5,126.167 156.5,124.5C 158.401,124.567 160.234,124.233 162,123.5C 164.283,121.638 166.783,120.305 169.5,119.5 Z"/></g>
<g><path style="opacity:1" fill="#49a942" d="M 233.5,114.5 C 233.833,114.5 234.167,114.5 234.5,114.5C 249.21,114.679 263.877,115.512 278.5,117C 282.663,118.666 286.997,119.499 291.5,119.5C 291.833,119.5 292.167,119.5 292.5,119.5C 297.671,124.46 304.004,127.127 311.5,127.5C 312.167,127.5 312.5,127.833 312.5,128.5C 313.028,129.721 313.695,130.887 314.5,132C 319.721,134.716 325.054,137.216 330.5,139.5C 335.952,142.563 340.618,146.563 344.5,151.5C 347.233,155.476 349.233,159.809 350.5,164.5C 353.294,165.253 355.96,166.253 358.5,167.5C 360.419,171.682 362.085,176.015 363.5,180.5C 364.748,181.04 365.915,181.707 367,182.5C 370.704,192.146 374.871,201.646 379.5,211C 379.257,211.902 378.923,212.735 378.5,213.5C 376.079,213.878 373.746,214.545 371.5,215.5C 366.471,215.92 361.805,217.254 357.5,219.5C 354.167,220.167 350.833,220.833 347.5,221.5C 342.506,222.661 337.506,223.828 332.5,225C 330.934,225.608 329.6,226.442 328.5,227.5C 326.167,228.167 323.833,228.833 321.5,229.5C 315.5,230.833 309.5,232.167 303.5,233.5C 302.178,233.67 301.011,233.337 300,232.5C 295.669,219.339 287.503,209.339 275.5,202.5C 263.569,198.135 251.236,196.802 238.5,198.5C 238.167,198.5 237.833,198.5 237.5,198.5C 237.106,192.816 236.106,187.316 234.5,182C 234.648,180.293 234.982,178.626 235.5,177C 234.576,175.189 233.743,175.355 233,177.5C 232.721,172.902 231.221,168.902 228.5,165.5C 228.827,160.786 228.493,156.12 227.5,151.5C 225.295,149.072 223.628,146.405 222.5,143.5C 222.123,137.446 221.29,131.446 220,125.5C 219.667,125.833 219.333,126.167 219,126.5C 217.798,124.323 217.298,121.989 217.5,119.5C 222.748,117.628 228.082,115.962 233.5,114.5 Z"/></g>
<g><path style="opacity:0.346" fill="#7fb472" d="M 291.5,119.5 C 286.997,119.499 282.663,118.666 278.5,117C 263.877,115.512 249.21,114.679 234.5,114.5C 253.861,111.736 272.861,113.402 291.5,119.5 Z"/></g>
<g><path style="opacity:1" fill="#702c8d" d="M 303.5,107.5 C 308.365,107.549 313.031,108.549 317.5,110.5C 319.088,111.01 320.255,112.01 321,113.5C 324.867,110.992 328.7,111.158 332.5,114C 331.549,114.718 331.383,115.551 332,116.5C 333.303,117.112 334.47,117.446 335.5,117.5C 334.833,118.5 334.167,119.5 333.5,120.5C 335.5,121.167 337.5,121.833 339.5,122.5C 343.868,126.867 347.868,131.533 351.5,136.5C 336.935,124.229 320.935,114.562 303.5,107.5 Z"/></g>
<g><path style="opacity:1" fill="#7d4194" d="M 199.5,105.5 C 189.427,109.408 179.76,114.075 170.5,119.5C 170.714,117.856 170.38,116.356 169.5,115C 170.68,113.683 172.18,113.516 174,114.5C 178.127,112.855 181.96,110.855 185.5,108.5C 190.125,107.176 194.792,106.176 199.5,105.5 Z"/></g>
<g><path style="opacity:0.561" fill="#9b6daf" d="M 296.5,104.5 C 299.491,104.166 301.824,105.166 303.5,107.5C 300.843,107.065 298.509,106.065 296.5,104.5 Z"/></g>
<g><path style="opacity:0.686" fill="#86519a" d="M 223.5,99.5 C 215.586,101.355 207.586,103.355 199.5,105.5C 203.136,103.142 207.136,101.309 211.5,100C 215.486,99.5012 219.486,99.3345 223.5,99.5 Z"/></g>
<g><path style="opacity:0.996" fill="#804795" d="M 270.5,98.5 C 278.358,98.3884 286.025,99.5551 293.5,102C 294.571,102.852 295.571,103.685 296.5,104.5C 287.722,102.47 279.055,100.47 270.5,98.5 Z"/></g>
<g><path style="opacity:0.533" fill="#8d609f" d="M 113.5,180.5 C 111.07,187.016 108.403,193.35 105.5,199.5C 105.344,196.934 105.678,194.434 106.5,192C 108.574,188.686 110.241,185.186 111.5,181.5C 111.957,180.702 112.624,180.369 113.5,180.5 Z"/></g>
<g><path style="opacity:0.6" fill="#a677b8" d="M 8.5,183.5 C 7.74215,189.082 6.40881,194.416 4.5,199.5C 4.84487,193.821 6.1782,188.488 8.5,183.5 Z"/></g>
<g><path style="opacity:0.698" fill="#9765aa" d="M 387.5,186.5 C 389.124,186.36 390.29,187.027 391,188.5C 391.495,190.473 391.662,192.473 391.5,194.5C 390.199,191.899 388.866,189.232 387.5,186.5 Z"/></g>
<g><path style="opacity:1" fill="#3d8f36" d="M 303.5,233.5 C 303.5,233.833 303.5,234.167 303.5,234.5C 299.374,234.572 295.374,235.239 291.5,236.5C 291.286,234.856 291.62,233.356 292.5,232C 291.175,232.148 290.008,231.982 289,231.5C 286.246,226.992 283.746,222.326 281.5,217.5C 285.365,214.824 285.032,212.491 280.5,210.5C 279.319,212.135 279.319,213.802 280.5,215.5C 280,215.833 279.5,216.167 279,216.5C 276.119,214.476 272.953,213.143 269.5,212.5C 269.5,211.5 269.5,210.5 269.5,209.5C 272.247,209.813 274.914,209.48 277.5,208.5C 276.817,205.539 275.984,205.205 275,207.5C 274.667,206.833 274.333,206.167 274,205.5C 271.657,206.127 269.49,207.127 267.5,208.5C 264.232,209.487 260.898,209.82 257.5,209.5C 252.025,208.511 246.358,208.178 240.5,208.5C 240.684,204.921 240.017,201.587 238.5,198.5C 251.236,196.802 263.569,198.135 275.5,202.5C 287.503,209.339 295.669,219.339 300,232.5C 301.011,233.337 302.178,233.67 303.5,233.5 Z"/></g>
<g><path style="opacity:0.008" fill="#9deff8" d="M 169.5,199.5 C 168.167,200.5 166.833,201.5 165.5,202.5C 165.167,202.5 164.833,202.5 164.5,202.5C 165.793,200.704 167.293,199.037 169,197.5C 169.464,198.094 169.631,198.761 169.5,199.5 Z"/></g>
<g><path style="opacity:0.82" fill="#8956a0" d="M 105.5,199.5 C 105.072,202.785 104.072,205.785 102.5,208.5C 102.337,206.143 102.503,203.81 103,201.5C 103.417,200.244 104.25,199.577 105.5,199.5 Z"/></g>
<g><path style="opacity:0.718" fill="#945ca7" d="M 492.5,191.5 C 494.287,197.272 495.62,203.272 496.5,209.5C 495.833,208.833 495.167,208.167 494.5,207.5C 493.833,202.167 493.167,196.833 492.5,191.5 Z"/></g>
<g><path style="opacity:1" fill="#2e9dcc" d="M 177.5,203.5 C 176.5,204.833 175.5,206.167 174.5,207.5C 174.5,207.833 174.5,208.167 174.5,208.5C 173.833,208.5 173.5,208.833 173.5,209.5C 172.833,209.5 172.5,209.833 172.5,210.5C 171.662,210.842 171.328,211.508 171.5,212.5C 169.521,213.812 167.855,215.479 166.5,217.5C 167.138,215.54 167.138,213.707 166.5,212C 167.793,211.51 169.127,211.343 170.5,211.5C 172.251,207.791 171.751,204.457 169,201.5C 164.222,208.678 159.722,216.012 155.5,223.5C 156.443,219.008 157.776,214.675 159.5,210.5C 160.906,210.027 161.573,209.027 161.5,207.5C 162.167,207.5 162.5,207.167 162.5,206.5C 163.338,206.158 163.672,205.492 163.5,204.5C 164.167,204.5 164.5,204.167 164.5,203.5C 165.167,203.5 165.5,203.167 165.5,202.5C 166.833,201.5 168.167,200.5 169.5,199.5C 171.729,198.945 173.395,197.611 174.5,195.5C 174.833,195.833 175.167,196.167 175.5,196.5C 172.538,199.388 173.205,200.721 177.5,200.5C 177.5,201.5 177.5,202.5 177.5,203.5 Z"/></g>
<g><path style="opacity:0.369" fill="#af7cc3" d="M 4.5,200.5 C 4.45123,204.078 3.78457,207.411 2.5,210.5C 2.32198,206.878 2.98864,203.544 4.5,200.5 Z"/></g>
<g><path style="opacity:0.016" fill="#b6fbff" d="M 177.5,203.5 C 178.239,203.369 178.906,203.536 179.5,204C 178.211,205.802 176.544,206.969 174.5,207.5C 175.5,206.167 176.5,204.833 177.5,203.5 Z"/></g>
<g><path style="opacity:1" fill="#5a9c6e" d="M 237.5,198.5 C 237.833,198.5 238.167,198.5 238.5,198.5C 240.017,201.587 240.684,204.921 240.5,208.5C 246.358,208.178 252.025,208.511 257.5,209.5C 251.797,209.375 246.13,209.708 240.5,210.5C 239.709,206.402 238.709,202.402 237.5,198.5 Z"/></g>
<g><path style="opacity:1" fill="#519249" d="M 291.5,236.5 C 290.167,236.5 289.5,237.167 289.5,238.5C 283.893,223.226 273.227,213.559 257.5,209.5C 260.898,209.82 264.232,209.487 267.5,208.5C 269.49,207.127 271.657,206.127 274,205.5C 274.333,206.167 274.667,206.833 275,207.5C 275.984,205.205 276.817,205.539 277.5,208.5C 274.914,209.48 272.247,209.813 269.5,209.5C 269.5,210.5 269.5,211.5 269.5,212.5C 272.953,213.143 276.119,214.476 279,216.5C 279.5,216.167 280,215.833 280.5,215.5C 279.319,213.802 279.319,212.135 280.5,210.5C 285.032,212.491 285.365,214.824 281.5,217.5C 283.746,222.326 286.246,226.992 289,231.5C 290.008,231.982 291.175,232.148 292.5,232C 291.62,233.356 291.286,234.856 291.5,236.5 Z"/></g>
<g><path style="opacity:1" fill="#2287b6" d="M 234.5,191.5 C 235.349,193.888 236.349,196.221 237.5,198.5C 238.709,202.402 239.709,206.402 240.5,210.5C 217.923,219.327 208.589,235.66 212.5,259.5C 211.5,259.5 210.5,259.5 209.5,259.5C 209.035,251.388 209.701,243.388 211.5,235.5C 210.347,231.701 209.013,228.034 207.5,224.5C 209.138,223.295 209.471,221.962 208.5,220.5C 213.249,215.084 218.249,210.084 223.5,205.5C 223.414,204.504 223.748,203.671 224.5,203C 227.705,202.351 230.705,201.185 233.5,199.5C 234.48,196.914 234.813,194.247 234.5,191.5 Z"/></g>
<g><path style="opacity:1" fill="#1099d8" d="M 166.5,217.5 C 166.011,218.995 165.345,220.329 164.5,221.5C 163.25,221.577 162.417,222.244 162,223.5C 161.692,222.692 161.192,222.025 160.5,221.5C 159.159,225.384 158.325,229.384 158,233.5C 156.989,234.337 155.822,234.67 154.5,234.5C 154.552,230.802 154.886,227.135 155.5,223.5C 159.722,216.012 164.222,208.678 169,201.5C 171.751,204.457 172.251,207.791 170.5,211.5C 169.127,211.343 167.793,211.51 166.5,212C 167.138,213.707 167.138,215.54 166.5,217.5 Z"/></g>
<g><path style="opacity:1" fill="#d78534" d="M 378.5,213.5 C 379.5,213.5 380.5,213.5 381.5,213.5C 382.451,214.919 382.784,216.585 382.5,218.5C 382.5,219.5 382.5,220.5 382.5,221.5C 381.399,220.152 380.399,218.652 379.5,217C 374.435,216.742 369.435,217.242 364.5,218.5C 366.888,217.651 369.221,216.651 371.5,215.5C 373.746,214.545 376.079,213.878 378.5,213.5 Z"/></g>
<g><path style="opacity:0.251" fill="#9e71ae" d="M 102.5,210.5 C 101.401,214.93 100.401,219.263 99.5,223.5C 98.8393,218.644 99.8393,214.31 102.5,210.5 Z"/></g>
<g><path style="opacity:1" fill="#50a6cf" d="M 162.5,204.5 C 162.5,205.167 162.5,205.833 162.5,206.5C 161.833,206.5 161.5,206.833 161.5,207.5C 160.094,207.973 159.427,208.973 159.5,210.5C 157.108,213.598 154.942,216.931 153,220.5C 147.955,232.687 146.288,245.353 148,258.5C 148.422,260.426 149.589,261.426 151.5,261.5C 150.116,262.801 148.616,262.801 147,261.5C 145.224,246.427 146.724,231.76 151.5,217.5C 153.358,213.792 155.858,210.459 159,207.5C 159.492,206.451 159.326,205.451 158.5,204.5C 159.808,203.374 161.142,203.374 162.5,204.5 Z"/></g>
<g><path style="opacity:1" fill="#97942f" d="M 371.5,215.5 C 369.221,216.651 366.888,217.651 364.5,218.5C 362.194,218.993 359.861,219.326 357.5,219.5C 361.805,217.254 366.471,215.92 371.5,215.5 Z"/></g>
<g><path style="opacity:0.667" fill="#804796" d="M 391.5,194.5 C 393.532,196.851 395.365,199.517 397,202.5C 399.726,212.317 401.226,222.317 401.5,232.5C 401.5,233.833 401.5,235.167 401.5,236.5C 399.648,222.25 396.315,208.25 391.5,194.5 Z"/></g>
<g><path style="opacity:1" fill="#8b952f" d="M 347.5,221.5 C 341.565,224.496 335.231,226.496 328.5,227.5C 329.6,226.442 330.934,225.608 332.5,225C 337.506,223.828 342.506,222.661 347.5,221.5 Z"/></g>
<g><path style="opacity:0.059" fill="#f1bd8a" d="M 382.5,218.5 C 384.306,223.547 385.306,228.88 385.5,234.5C 384.097,230.345 383.097,226.012 382.5,221.5C 382.5,220.5 382.5,219.5 382.5,218.5 Z"/></g>
<g><path style="opacity:1" fill="#369ccd" d="M 121.5,204.5 C 121.567,206.401 121.233,208.234 120.5,210C 122.203,211.37 123.536,213.036 124.5,215C 122.839,217.647 121.506,220.48 120.5,223.5C 119.692,221.577 119.192,219.577 119,217.5C 117.437,229.021 116.271,240.688 115.5,252.5C 115.379,259.296 116.212,265.963 118,272.5C 120.517,270.49 122.017,267.823 122.5,264.5C 123.781,268.608 122.947,272.274 120,275.5C 119.506,277.134 119.34,278.801 119.5,280.5C 121.5,280.167 123.5,279.833 125.5,279.5C 124.874,275.805 125.874,274.971 128.5,277C 127.663,278.011 127.33,279.178 127.5,280.5C 126.5,280.833 125.833,281.5 125.5,282.5C 123.401,283.612 121.067,284.279 118.5,284.5C 115.066,272.98 113.399,261.147 113.5,249C 113.262,233.492 115.929,218.659 121.5,204.5 Z"/></g>
<g><path style="opacity:0.961" fill="#733d88" d="M 266.5,235.5 C 256.551,229.297 246.551,228.963 236.5,234.5C 238.049,231.796 240.383,229.963 243.5,229C 252.63,226.667 260.297,228.834 266.5,235.5 Z"/></g>
<g><path style="opacity:1" fill="#1785bc" d="M 223.5,205.5 C 218.249,210.084 213.249,215.084 208.5,220.5C 209.471,221.962 209.138,223.295 207.5,224.5C 209.013,228.034 210.347,231.701 211.5,235.5C 209.701,243.388 209.035,251.388 209.5,259.5C 203.265,260.89 197.265,262.89 191.5,265.5C 188.365,267.023 185.032,267.69 181.5,267.5C 183.965,266.753 185.965,265.253 187.5,263C 191.599,262.474 195.599,261.641 199.5,260.5C 194.795,236.271 202.795,217.938 223.5,205.5 Z"/></g>
<g><path style="opacity:0.929" fill="#45a0cb" d="M 164.5,221.5 C 158.926,233.223 157.092,245.556 159,258.5C 161.222,261.303 163.055,261.137 164.5,258C 163.377,249.536 163.21,241.036 164,232.5C 164.878,228.948 166.044,225.614 167.5,222.5C 166.944,229.004 166.277,235.504 165.5,242C 165.869,245.401 166.536,248.734 167.5,252C 167.129,254.856 166.629,257.689 166,260.5C 162.76,262.036 159.76,261.703 157,259.5C 156.832,251.479 156.332,243.479 155.5,235.5C 154.029,236.381 153.196,237.714 153,239.5C 152.501,243.486 152.334,247.486 152.5,251.5C 151.492,243.981 151.659,236.314 153,228.5C 153.374,226.509 154.207,224.842 155.5,223.5C 154.886,227.135 154.552,230.802 154.5,234.5C 155.822,234.67 156.989,234.337 158,233.5C 158.325,229.384 159.159,225.384 160.5,221.5C 161.192,222.025 161.692,222.692 162,223.5C 162.417,222.244 163.25,221.577 164.5,221.5 Z"/></g>
<g><path style="opacity:1" fill="#6a158f" d="M 266.5,235.5 C 268.356,239.279 269.356,243.445 269.5,248C 269.321,251.858 268.987,255.691 268.5,259.5C 268.5,259.833 268.5,260.167 268.5,260.5C 267.5,260.5 266.5,260.5 265.5,260.5C 265.5,261.5 265.5,262.5 265.5,263.5C 263.801,263.34 262.134,263.506 260.5,264C 261.833,264.667 261.833,265.333 260.5,266C 258.616,266.216 256.949,266.883 255.5,268C 250.499,268.251 245.499,268.084 240.5,267.5C 239.833,267.5 239.5,267.167 239.5,266.5C 237.479,262.752 235.312,259.086 233,255.5C 231.566,251.594 231.233,247.594 232,243.5C 232.414,243.957 232.914,244.291 233.5,244.5C 234.515,241.146 235.515,237.812 236.5,234.5C 246.551,228.963 256.551,229.297 266.5,235.5 Z"/></g>
<g><path style="opacity:1" fill="#887e2c" d="M 303.5,234.5 C 300.098,235.635 296.765,236.968 293.5,238.5C 292.167,238.5 290.833,238.5 289.5,238.5C 289.5,237.167 290.167,236.5 291.5,236.5C 295.374,235.239 299.374,234.572 303.5,234.5 Z"/></g>
<g><path style="opacity:1" fill="#f37b21" d="M 382.5,221.5 C 383.097,226.012 384.097,230.345 385.5,234.5C 386.833,244.167 386.833,253.833 385.5,263.5C 384.778,263.918 384.278,264.584 384,265.5C 383.501,269.152 383.335,272.818 383.5,276.5C 383.5,276.833 383.5,277.167 383.5,277.5C 381.903,278.737 380.737,280.404 380,282.5C 378.848,287.126 378.015,291.793 377.5,296.5C 377.065,299.157 376.065,301.491 374.5,303.5C 373.503,303.47 372.836,303.97 372.5,305C 371.577,307.94 370.577,310.773 369.5,313.5C 368.5,313.5 367.5,313.5 366.5,313.5C 366.66,315.199 366.494,316.866 366,318.5C 365.667,317.833 365.333,317.167 365,316.5C 362.273,319.146 359.773,322.313 357.5,326C 358.406,327.699 358.739,329.533 358.5,331.5C 353.617,331.221 351.451,333.221 352,337.5C 350.644,338.38 349.144,338.714 347.5,338.5C 347.66,340.199 347.494,341.866 347,343.5C 346.275,341.842 345.108,341.342 343.5,342C 344.609,343.813 343.942,344.646 341.5,344.5C 341.5,345.5 341.5,346.5 341.5,347.5C 340.5,347.5 339.5,347.5 338.5,347.5C 338.5,349.167 338.5,350.833 338.5,352.5C 336.155,355.177 333.488,357.51 330.5,359.5C 328.657,358.717 326.657,358.05 324.5,357.5C 322.164,359.073 322.164,360.406 324.5,361.5C 321.515,362.728 318.515,363.894 315.5,365C 314.643,365.689 313.977,366.522 313.5,367.5C 310.173,369.748 305.84,371.081 300.5,371.5C 296.832,372.998 293.498,374.998 290.5,377.5C 288.955,378.452 287.288,378.785 285.5,378.5C 283.488,371.817 281.488,365.151 279.5,358.5C 275.712,344.439 271.712,330.439 267.5,316.5C 267.5,314.5 267.5,312.5 267.5,310.5C 267.745,307.135 267.078,303.968 265.5,301C 269.151,297.548 273.485,295.215 278.5,294C 294.643,282.616 302.643,266.949 302.5,247C 302.714,243.431 302.047,240.098 300.5,237C 303.226,236.818 305.893,236.318 308.5,235.5C 313.248,234.242 317.581,232.242 321.5,229.5C 323.833,228.833 326.167,228.167 328.5,227.5C 335.231,226.496 341.565,224.496 347.5,221.5C 350.833,220.833 354.167,220.167 357.5,219.5C 359.861,219.326 362.194,218.993 364.5,218.5C 369.435,217.242 374.435,216.742 379.5,217C 380.399,218.652 381.399,220.152 382.5,221.5 Z M 347.5,283.5 C 344.89,288.109 341.89,292.442 338.5,296.5C 341.395,290.712 343.728,284.712 345.5,278.5C 346.748,275.058 347.581,271.392 348,267.5C 348.429,259.809 348.429,252.143 348,244.5C 349.587,243.273 350.921,243.606 352,245.5C 353.549,258.556 352.049,271.223 347.5,283.5 Z M 342.5,249.5 C 342.5,250.167 342.5,250.833 342.5,251.5C 342.442,267.68 337.442,282.013 327.5,294.5C 327.167,294.5 326.833,294.5 326.5,294.5C 327.758,292.313 328.758,289.98 329.5,287.5C 332.094,283.97 333.928,279.97 335,275.5C 335.497,273.19 335.663,270.857 335.5,268.5C 338.167,262.5 338.167,256.5 335.5,250.5C 335.5,248.5 335.5,246.5 335.5,244.5C 339.886,243.574 342.22,245.241 342.5,249.5 Z M 326.5,294.5 C 326.167,295.5 325.5,296.167 324.5,296.5C 324.5,295.167 325.167,294.5 326.5,294.5 Z M 338.5,296.5 C 338.262,298.404 337.262,299.738 335.5,300.5C 335.738,298.596 336.738,297.262 338.5,296.5 Z"/></g>
<g><path style="opacity:0.988" fill="#783198" d="M 9.5,178.5 C 10.1667,178.5 10.8333,178.5 11.5,178.5C 11.2597,184.964 9.92641,191.131 7.5,197C 7.6448,197.772 7.97814,198.439 8.5,199C 7.71779,201.74 7.21779,204.574 7,207.5C 6.33333,210.167 5.66667,210.167 5,207.5C 3.2053,216.401 2.03863,225.401 1.5,234.5C 2.87395,238.636 3.54062,242.97 3.5,247.5C 2.51318,258.49 2.34651,269.49 3,280.5C 4.35975,287.864 5.69309,295.198 7,302.5C 7.92769,304.307 9.09435,305.974 10.5,307.5C 10.1667,308.167 9.83333,308.833 9.5,309.5C 10.2396,313.492 10.9063,317.492 11.5,321.5C 10.8333,321.167 10.1667,320.833 9.5,320.5C 9.66463,317.482 9.49796,314.482 9,311.5C 6.65771,303.798 4.49104,296.131 2.5,288.5C 1.11679,282.894 0.116792,277.228 -0.5,271.5C -0.5,257.167 -0.5,242.833 -0.5,228.5C 0.0949954,222.438 1.095,216.438 2.5,210.5C 3.78457,207.411 4.45123,204.078 4.5,200.5C 4.5,200.167 4.5,199.833 4.5,199.5C 6.40881,194.416 7.74215,189.082 8.5,183.5C 8.21552,181.585 8.54885,179.919 9.5,178.5 Z"/></g>
<g><path style="opacity:1" fill="#c77234" d="M 289.5,238.5 C 290.833,238.5 292.167,238.5 293.5,238.5C 293.083,245.287 293.75,251.954 295.5,258.5C 295.167,259.5 294.833,260.5 294.5,261.5C 293.702,259.922 293.202,258.256 293,256.5C 291.181,265.166 286.681,272.166 279.5,277.5C 288.904,266.223 292.237,253.223 289.5,238.5 Z"/></g>
<g><path style="opacity:0.918" fill="#78408c" d="M 266.5,235.5 C 267.885,236.574 269.051,237.907 270,239.5C 270.711,242.734 271.545,245.901 272.5,249C 271.545,252.099 270.711,255.266 270,258.5C 269.617,259.056 269.117,259.389 268.5,259.5C 268.987,255.691 269.321,251.858 269.5,248C 269.356,243.445 268.356,239.279 266.5,235.5 Z"/></g>
<g><path style="opacity:0.975" fill="#e68c4d" d="M 342.5,249.5 C 342.22,245.241 339.886,243.574 335.5,244.5C 335.5,246.5 335.5,248.5 335.5,250.5C 336.74,256.506 336.74,262.506 335.5,268.5C 335.663,270.857 335.497,273.19 335,275.5C 333.928,279.97 332.094,283.97 329.5,287.5C 330.395,284.262 330.395,281.095 329.5,278C 330.448,277.517 331.448,277.351 332.5,277.5C 334.042,266.251 334.875,254.917 335,243.5C 340.72,241.362 343.22,243.362 342.5,249.5 Z"/></g>
<g><path style="opacity:0.725" fill="#e5965c" d="M 347.5,283.5 C 352.049,271.223 353.549,258.556 352,245.5C 350.921,243.606 349.587,243.273 348,244.5C 348.429,252.143 348.429,259.809 348,267.5C 347.581,271.392 346.748,275.058 345.5,278.5C 345.833,273.833 346.167,269.167 346.5,264.5C 346.334,257.492 346.5,250.492 347,243.5C 349.269,240.946 351.602,240.946 354,243.5C 354.667,251.167 354.667,258.833 354,266.5C 352.282,270.995 350.949,275.662 350,280.5C 349.623,281.942 348.79,282.942 347.5,283.5 Z"/></g>
<g><path style="opacity:0.996" fill="#763d8e" d="M 236.5,234.5 C 235.515,237.812 234.515,241.146 233.5,244.5C 232.914,244.291 232.414,243.957 232,243.5C 231.233,247.594 231.566,251.594 233,255.5C 235.312,259.086 237.479,262.752 239.5,266.5C 232.951,262.904 229.617,257.238 229.5,249.5C 229.448,243.275 231.782,238.275 236.5,234.5 Z"/></g>
<g><path style="opacity:1" fill="#85529a" d="M 268.5,260.5 C 261.049,270.655 251.715,272.988 240.5,267.5C 245.499,268.084 250.499,268.251 255.5,268C 256.949,266.883 258.616,266.216 260.5,266C 261.833,265.333 261.833,264.667 260.5,264C 262.134,263.506 263.801,263.34 265.5,263.5C 265.5,262.5 265.5,261.5 265.5,260.5C 266.5,260.5 267.5,260.5 268.5,260.5 Z"/></g>
<g><path style="opacity:0.984" fill="#af4f81" d="M 209.5,259.5 C 210.5,259.5 211.5,259.5 212.5,259.5C 213.696,262.421 214.696,265.421 215.5,268.5C 212.693,267.02 211.027,264.687 210.5,261.5C 205.987,262.23 201.654,263.23 197.5,264.5C 196.167,264.833 194.833,265.167 193.5,265.5C 192.833,265.5 192.167,265.5 191.5,265.5C 197.265,262.89 203.265,260.89 209.5,259.5 Z"/></g>
<g><path style="opacity:0.235" fill="#f2c296" d="M 335.5,250.5 C 338.167,256.5 338.167,262.5 335.5,268.5C 336.74,262.506 336.74,256.506 335.5,250.5 Z"/></g>
<g><path style="opacity:1" fill="#7b3799" d="M 494.5,207.5 C 495.167,208.167 495.833,208.833 496.5,209.5C 497.776,215.915 498.776,222.249 499.5,228.5C 499.5,242.833 499.5,257.167 499.5,271.5C 499.167,271.5 498.833,271.5 498.5,271.5C 497.263,276.96 496.596,282.627 496.5,288.5C 495.785,297.905 493.785,306.905 490.5,315.5C 491.73,303.084 493.563,290.751 496,278.5C 498.396,254.711 497.896,231.044 494.5,207.5 Z"/></g>
<g><path style="opacity:1" fill="#d3397f" d="M 191.5,265.5 C 192.167,265.5 192.833,265.5 193.5,265.5C 190.733,267.871 187.4,269.038 183.5,269C 184.833,269.333 186.167,269.667 187.5,270C 186.892,270.87 186.059,271.37 185,271.5C 183.374,270.982 181.707,270.648 180,270.5C 174.776,271.312 169.609,272.312 164.5,273.5C 168.791,270.164 173.791,268.664 179.5,269C 180.416,268.722 181.082,268.222 181.5,267.5C 185.032,267.69 188.365,267.023 191.5,265.5 Z"/></g>
<g><path style="opacity:1" fill="#ee2b74" d="M 197.5,264.5 C 198.5,264.5 199.5,264.5 200.5,264.5C 201.494,270.243 204.327,274.91 209,278.5C 209.333,279.833 209.667,281.167 210,282.5C 213.554,286.054 217.054,289.554 220.5,293C 226.297,294.812 231.631,297.479 236.5,301C 243.5,301.667 250.5,301.667 257.5,301C 259.382,300.802 261.048,300.302 262.5,299.5C 264.283,303.126 265.95,306.792 267.5,310.5C 267.5,312.5 267.5,314.5 267.5,316.5C 268.108,320.472 268.608,324.472 269,328.5C 272.203,338.67 275.703,348.67 279.5,358.5C 281.488,365.151 283.488,371.817 285.5,378.5C 285.167,379.167 284.833,379.833 284.5,380.5C 279.154,379.854 274.154,380.688 269.5,383C 255.833,383.667 242.167,383.667 228.5,383C 224.828,382.169 221.828,380.335 219.5,377.5C 218.061,378.063 216.561,378.397 215,378.5C 210.98,377.044 206.813,376.378 202.5,376.5C 198.951,373.18 194.618,371.513 189.5,371.5C 187.996,369.164 185.996,367.331 183.5,366C 184.624,365.751 185.624,365.251 186.5,364.5C 180.28,365.51 175.28,363.343 171.5,358C 170.207,357.51 168.873,357.343 167.5,357.5C 167.027,356.094 166.027,355.427 164.5,355.5C 149.159,343.499 137.159,328.833 128.5,311.5C 128.453,308.432 127.953,305.432 127,302.5C 124.573,300.028 123.073,297.028 122.5,293.5C 122.043,292.702 121.376,292.369 120.5,292.5C 120.5,291.833 120.5,291.167 120.5,290.5C 120.5,288.833 120.5,287.167 120.5,285.5C 125.874,285.116 130.874,283.782 135.5,281.5C 139.535,281.67 142.869,280.337 145.5,277.5C 145.833,277.5 146.167,277.5 146.5,277.5C 152.751,276.736 158.751,275.403 164.5,273.5C 169.609,272.312 174.776,271.312 180,270.5C 181.707,270.648 183.374,270.982 185,271.5C 186.059,271.37 186.892,270.87 187.5,270C 186.167,269.667 184.833,269.333 183.5,269C 187.4,269.038 190.733,267.871 193.5,265.5C 194.833,265.167 196.167,264.833 197.5,264.5 Z"/></g>
<g><path style="opacity:0.259" fill="#e6a97b" d="M 385.5,263.5 C 385.23,268.028 384.563,272.361 383.5,276.5C 383.335,272.818 383.501,269.152 384,265.5C 384.278,264.584 384.778,263.918 385.5,263.5 Z"/></g>
<g><path style="opacity:1" fill="#4a83c3" d="M 181.5,267.5 C 181.082,268.222 180.416,268.722 179.5,269C 173.791,268.664 168.791,270.164 164.5,273.5C 158.153,273.698 152.153,275.031 146.5,277.5C 146.167,277.5 145.833,277.5 145.5,277.5C 141.642,277.77 138.309,279.103 135.5,281.5C 132.098,281.342 128.764,281.676 125.5,282.5C 125.833,281.5 126.5,280.833 127.5,280.5C 138.701,277.347 150.701,274.347 163.5,271.5C 163.977,270.522 164.643,269.689 165.5,269C 170.844,268.529 176.178,268.029 181.5,267.5 Z"/></g>
<g><path style="opacity:1" fill="#99589a" d="M 164.5,273.5 C 158.751,275.403 152.751,276.736 146.5,277.5C 152.153,275.031 158.153,273.698 164.5,273.5 Z"/></g>
<g><path style="opacity:1" fill="#763590" d="M 401.5,232.5 C 402.117,232.611 402.617,232.944 403,233.5C 403.688,248.188 403.355,262.854 402,277.5C 401.147,281.575 399.981,285.575 398.5,289.5C 399.396,291.801 399.562,294.134 399,296.5C 397.984,297.634 397.317,297.301 397,295.5C 396.257,297.441 396.424,299.274 397.5,301C 396.874,301.75 396.374,302.584 396,303.5C 395.23,302.402 394.397,302.402 393.5,303.5C 393.5,302.167 393.5,300.833 393.5,299.5C 394.117,299.389 394.617,299.056 395,298.5C 395.567,295.832 396.067,293.166 396.5,290.5C 396.756,287.402 397.422,284.402 398.5,281.5C 399.913,278.781 400.58,275.781 400.5,272.5C 401.277,260.516 401.61,248.516 401.5,236.5C 401.5,235.167 401.5,233.833 401.5,232.5 Z"/></g>
<g><path style="opacity:0.733" fill="#88559c" d="M 98.5,272.5 C 100.012,278.011 101.345,283.677 102.5,289.5C 101.883,289.389 101.383,289.056 101,288.5C 99.2023,283.311 98.369,277.978 98.5,272.5 Z"/></g>
<g><path style="opacity:1" fill="#c24671" d="M 215.5,268.5 C 222.409,279.062 232.076,285.729 244.5,288.5C 249.305,289.487 254.305,289.821 259.5,289.5C 252.323,290.819 244.99,290.819 237.5,289.5C 233.898,286.867 229.898,285.033 225.5,284C 224.845,282.513 223.845,281.347 222.5,280.5C 221.808,281.025 221.308,281.692 221,282.5C 219.908,277.35 218.075,272.684 215.5,268.5 Z"/></g>
<g><path style="opacity:1" fill="#bb468c" d="M 145.5,277.5 C 142.869,280.337 139.535,281.67 135.5,281.5C 138.309,279.103 141.642,277.77 145.5,277.5 Z"/></g>
<g><path style="opacity:0.251" fill="#a275b7" d="M 400.5,272.5 C 400.58,275.781 399.913,278.781 398.5,281.5C 398.42,278.219 399.087,275.219 400.5,272.5 Z"/></g>
<g><path style="opacity:0.455" fill="#925da3" d="M 498.5,271.5 C 498.872,277.43 498.205,283.097 496.5,288.5C 496.596,282.627 497.263,276.96 498.5,271.5 Z"/></g>
<g><path style="opacity:1" fill="#bd4c8c" d="M 135.5,281.5 C 130.874,283.782 125.874,285.116 120.5,285.5C 120.5,287.167 120.5,288.833 120.5,290.5C 118.926,288.898 118.259,286.898 118.5,284.5C 121.067,284.279 123.401,283.612 125.5,282.5C 128.764,281.676 132.098,281.342 135.5,281.5 Z"/></g>
<g><path style="opacity:0.914" fill="#e0945f" d="M 383.5,277.5 C 382.272,284.18 380.272,290.514 377.5,296.5C 378.015,291.793 378.848,287.126 380,282.5C 380.737,280.404 381.903,278.737 383.5,277.5 Z"/></g>
<g><path style="opacity:0.655" fill="#cc915e" d="M 277.5,279.5 C 275.717,283.89 272.383,285.89 267.5,285.5C 270.825,283.503 274.159,281.503 277.5,279.5 Z"/></g>
<g><path style="opacity:1" fill="#cb2462" d="M 215.5,268.5 C 218.075,272.684 219.908,277.35 221,282.5C 221.308,281.692 221.808,281.025 222.5,280.5C 223.845,281.347 224.845,282.513 225.5,284C 229.898,285.033 233.898,286.867 237.5,289.5C 244.99,290.819 252.323,290.819 259.5,289.5C 260.167,289.5 260.833,289.5 261.5,289.5C 261.616,292.86 261.949,296.193 262.5,299.5C 261.048,300.302 259.382,300.802 257.5,301C 250.5,301.667 243.5,301.667 236.5,301C 231.631,297.479 226.297,294.812 220.5,293C 217.054,289.554 213.554,286.054 210,282.5C 209.667,281.167 209.333,279.833 209,278.5C 204.327,274.91 201.494,270.243 200.5,264.5C 199.5,264.5 198.5,264.5 197.5,264.5C 201.654,263.23 205.987,262.23 210.5,261.5C 211.027,264.687 212.693,267.02 215.5,268.5 Z"/></g>
<g><path style="opacity:1" fill="#d1691c" d="M 321.5,229.5 C 317.581,232.242 313.248,234.242 308.5,235.5C 305.893,236.318 303.226,236.818 300.5,237C 302.047,240.098 302.714,243.431 302.5,247C 302.643,266.949 294.643,282.616 278.5,294C 273.485,295.215 269.151,297.548 265.5,301C 267.078,303.968 267.745,307.135 267.5,310.5C 265.95,306.792 264.283,303.126 262.5,299.5C 261.949,296.193 261.616,292.86 261.5,289.5C 263.636,288.347 265.636,287.014 267.5,285.5C 272.383,285.89 275.717,283.89 277.5,279.5C 277.5,278.167 278.167,277.5 279.5,277.5C 286.681,272.166 291.181,265.166 293,256.5C 293.202,258.256 293.702,259.922 294.5,261.5C 294.833,260.5 295.167,259.5 295.5,258.5C 293.75,251.954 293.083,245.287 293.5,238.5C 296.765,236.968 300.098,235.635 303.5,234.5C 303.5,234.167 303.5,233.833 303.5,233.5C 309.5,232.167 315.5,230.833 321.5,229.5 Z"/></g>
<g><path style="opacity:0.043" fill="#edacb3" d="M 267.5,285.5 C 265.636,287.014 263.636,288.347 261.5,289.5C 260.833,289.5 260.167,289.5 259.5,289.5C 254.305,289.821 249.305,289.487 244.5,288.5C 252.451,289.195 260.118,288.195 267.5,285.5 Z"/></g>
<g><path style="opacity:1" fill="#eb7f31" d="M 342.5,251.5 C 343.833,255.833 345.167,260.167 346.5,264.5C 346.167,269.167 345.833,273.833 345.5,278.5C 341.439,282.622 338.939,287.622 338,293.5C 335.875,294.676 334.041,296.009 332.5,297.5C 330.482,296.067 328.815,296.401 327.5,298.5C 327.5,297.167 327.5,295.833 327.5,294.5C 337.442,282.013 342.442,267.68 342.5,251.5 Z"/></g>
<g><path style="opacity:0.224" fill="#9d7aae" d="M 102.5,290.5 C 103.924,292.515 104.59,294.848 104.5,297.5C 103.076,295.485 102.41,293.152 102.5,290.5 Z"/></g>
<g><path style="opacity:0.592" fill="#ae7fb8" d="M 396.5,290.5 C 396.067,293.166 395.567,295.832 395,298.5C 394.617,299.056 394.117,299.389 393.5,299.5C 393.883,296.189 394.883,293.189 396.5,290.5 Z"/></g>
<g><path style="opacity:0.224" fill="#eca768" d="M 329.5,287.5 C 328.758,289.98 327.758,292.313 326.5,294.5C 326.833,294.5 327.167,294.5 327.5,294.5C 327.5,295.833 327.5,297.167 327.5,298.5C 326.167,298.833 324.833,299.167 323.5,299.5C 323.167,298.167 322.833,298.167 322.5,299.5C 321.788,300.739 320.788,301.239 319.5,301C 321.291,298.44 322.457,295.607 323,292.5C 323.333,292.833 323.667,293.167 324,293.5C 325.23,290.964 327.063,288.964 329.5,287.5 Z M 326.5,294.5 C 326.167,295.5 325.5,296.167 324.5,296.5C 324.5,295.167 325.167,294.5 326.5,294.5 Z"/></g>
<g><path style="opacity:1" fill="#e98b47" d="M 345.5,278.5 C 343.728,284.712 341.395,290.712 338.5,296.5C 341.89,292.442 344.89,288.109 347.5,283.5C 346.935,288.149 346.435,292.816 346,297.5C 345.29,296.027 344.124,295.36 342.5,295.5C 342.719,296.675 342.386,297.675 341.5,298.5C 337.085,299.907 335.418,302.907 336.5,307.5C 333.022,308.486 329.689,309.82 326.5,311.5C 326.756,309.208 326.423,307.041 325.5,305C 326.549,304.508 327.549,304.674 328.5,305.5C 329.429,304.311 329.762,302.978 329.5,301.5C 330.5,301.5 331.5,301.5 332.5,301.5C 332.5,300.167 332.5,298.833 332.5,297.5C 334.041,296.009 335.875,294.676 338,293.5C 338.939,287.622 341.439,282.622 345.5,278.5 Z M 338.5,296.5 C 338.262,298.404 337.262,299.738 335.5,300.5C 335.738,298.596 336.738,297.262 338.5,296.5 Z"/></g>
<g><path style="opacity:0.969" fill="#db5d89" d="M 120.5,292.5 C 121.376,292.369 122.043,292.702 122.5,293.5C 123.073,297.028 124.573,300.028 127,302.5C 127.953,305.432 128.453,308.432 128.5,311.5C 125.451,305.361 122.784,299.027 120.5,292.5 Z"/></g>
<g><path style="opacity:0.545" fill="#e0975d" d="M 374.5,303.5 C 373.868,307.431 372.201,310.765 369.5,313.5C 370.577,310.773 371.577,307.94 372.5,305C 372.836,303.97 373.503,303.47 374.5,303.5 Z"/></g>
<g><path style="opacity:0.914" fill="#825298" d="M 393.5,299.5 C 393.5,300.833 393.5,302.167 393.5,303.5C 392.698,304.952 392.198,306.618 392,308.5C 391.292,309.381 390.458,310.047 389.5,310.5C 390.462,306.605 391.796,302.939 393.5,299.5 Z"/></g>
<g><path style="opacity:0.859" fill="#8855a0" d="M 2.5,288.5 C 4.49104,296.131 6.65771,303.798 9,311.5C 9.49796,314.482 9.66463,317.482 9.5,320.5C 5.68066,310.29 3.34732,299.623 2.5,288.5 Z"/></g>
<g><path style="opacity:0.988" fill="#7e4895" d="M 104.5,297.5 C 107.42,303.68 110.087,310.014 112.5,316.5C 106.876,311.567 104.209,305.234 104.5,297.5 Z"/></g>
<g><path style="opacity:1" fill="#ec8641" d="M 369.5,313.5 C 368.292,316.919 366.792,320.253 365,323.5C 362.575,326.053 360.408,328.72 358.5,331.5C 358.739,329.533 358.406,327.699 357.5,326C 359.773,322.313 362.273,319.146 365,316.5C 365.333,317.167 365.667,317.833 366,318.5C 366.494,316.866 366.66,315.199 366.5,313.5C 367.5,313.5 368.5,313.5 369.5,313.5 Z"/></g>
<g><path style="opacity:0.11" fill="#aa85b1" d="M 116.5,324.5 C 117.906,324.973 118.573,325.973 118.5,327.5C 117.094,327.027 116.427,326.027 116.5,324.5 Z"/></g>
<g><path style="opacity:1" fill="#793b8f" d="M 112.5,316.5 C 114.341,318.849 115.674,321.515 116.5,324.5C 116.427,326.027 117.094,327.027 118.5,327.5C 120.664,329.822 122.331,332.489 123.5,335.5C 122.279,334.972 121.113,334.305 120,333.5C 117.667,330.167 115.333,326.833 113,323.5C 112.503,321.19 112.337,318.857 112.5,316.5 Z"/></g>
<g><path style="opacity:1" fill="#e83e5a" d="M 267.5,316.5 C 271.712,330.439 275.712,344.439 279.5,358.5C 275.703,348.67 272.203,338.67 269,328.5C 268.608,324.472 268.108,320.472 267.5,316.5 Z"/></g>
<g><path style="opacity:0.914" fill="#854d9a" d="M 9.5,320.5 C 10.1667,320.833 10.8333,321.167 11.5,321.5C 14.4739,330.06 17.1406,338.726 19.5,347.5C 14.8037,339.089 11.4704,330.089 9.5,320.5 Z"/></g>
<g><path style="opacity:0.745" fill="#824494" d="M 490.5,315.5 C 489.27,323.266 486.937,330.6 483.5,337.5C 483.338,335.473 483.505,333.473 484,331.5C 486.126,326.668 487.793,321.668 489,316.5C 489.383,315.944 489.883,315.611 490.5,315.5 Z"/></g>
<g><path style="opacity:1" fill="#773b91" d="M 382.5,324.5 C 381.293,328.896 379.793,333.23 378,337.5C 376.22,338.639 374.386,339.639 372.5,340.5C 375.336,334.822 378.669,329.489 382.5,324.5 Z"/></g>
<g><path style="opacity:0.247" fill="#bc9dc7" d="M 123.5,335.5 C 125.262,336.262 126.262,337.596 126.5,339.5C 124.738,338.738 123.738,337.404 123.5,335.5 Z"/></g>
<g><path style="opacity:1" fill="#ea8f52" d="M 358.5,331.5 C 353.21,339.79 346.544,346.79 338.5,352.5C 338.5,350.833 338.5,349.167 338.5,347.5C 339.5,347.5 340.5,347.5 341.5,347.5C 341.5,346.5 341.5,345.5 341.5,344.5C 343.942,344.646 344.609,343.813 343.5,342C 345.108,341.342 346.275,341.842 347,343.5C 347.494,341.866 347.66,340.199 347.5,338.5C 349.144,338.714 350.644,338.38 352,337.5C 351.451,333.221 353.617,331.221 358.5,331.5 Z"/></g>
<g><path style="opacity:1" fill="#7a3896" d="M 483.5,337.5 C 476.89,358.366 466.89,377.366 453.5,394.5C 452.094,394.973 451.427,395.973 451.5,397.5C 450.396,399.389 449.063,401.055 447.5,402.5C 448.517,399.973 448.517,397.473 447.5,395C 448.944,392.966 450.944,392.132 453.5,392.5C 453.5,390.5 453.5,388.5 453.5,386.5C 454.5,386.5 455.5,386.5 456.5,386.5C 456.343,385.127 456.51,383.793 457,382.5C 460.348,379.149 463.348,375.482 466,371.5C 466.72,369.888 466.554,368.388 465.5,367C 466.449,366.383 467.282,366.549 468,367.5C 468.497,365.19 468.663,362.857 468.5,360.5C 470.492,360.672 472.158,360.005 473.5,358.5C 474.329,355.198 474.996,351.865 475.5,348.5C 478.353,344.807 481.019,341.141 483.5,337.5 Z"/></g>
<g><path style="opacity:1" fill="#743691" d="M 127.5,340.5 C 133.493,347.494 139.493,354.494 145.5,361.5C 143.712,361.785 142.045,361.452 140.5,360.5C 139.279,357.136 137.113,356.136 134,357.5C 135.342,353.188 134.009,349.855 130,347.5C 128.587,345.348 127.754,343.014 127.5,340.5 Z"/></g>
<g><path style="opacity:0.212" fill="#ebabc2" d="M 164.5,355.5 C 166.027,355.427 167.027,356.094 167.5,357.5C 165.973,357.573 164.973,356.906 164.5,355.5 Z"/></g>
<g><path style="opacity:1" fill="#793893" d="M 19.5,347.5 C 22.6421,350.429 24.8087,354.096 26,358.5C 27.0674,359.191 28.2341,359.691 29.5,360C 29.1667,360.333 28.8333,360.667 28.5,361C 31.204,365.906 33.204,371.072 34.5,376.5C 27.727,367.96 22.727,358.293 19.5,347.5 Z"/></g>
<g><path style="opacity:0.18" fill="#b99dc7" d="M 353.5,361.5 C 352.5,362.833 351.5,364.167 350.5,365.5C 349.833,365.5 349.167,365.5 348.5,365.5C 349.585,363.413 351.251,362.08 353.5,361.5 Z"/></g>
<g><path style="opacity:1" fill="#6e2a8d" d="M 372.5,340.5 C 371.629,343.112 370.963,345.779 370.5,348.5C 366.12,349.224 364.12,351.89 364.5,356.5C 358.89,356.922 356.557,359.756 357.5,365C 356.874,365.75 356.374,366.584 356,367.5C 354.556,365.845 352.722,365.178 350.5,365.5C 351.5,364.167 352.5,362.833 353.5,361.5C 359.442,354.221 365.775,347.221 372.5,340.5 Z"/></g>
<g><path style="opacity:0.824" fill="#966ca7" d="M 146.5,361.5 C 148.167,362.5 149.5,363.833 150.5,365.5C 147.858,365.512 146.525,364.179 146.5,361.5 Z"/></g>
<g><path style="opacity:1" fill="#dd5584" d="M 167.5,357.5 C 168.873,357.343 170.207,357.51 171.5,358C 175.28,363.343 180.28,365.51 186.5,364.5C 185.624,365.251 184.624,365.751 183.5,366C 185.996,367.331 187.996,369.164 189.5,371.5C 181.515,367.842 174.181,363.175 167.5,357.5 Z"/></g>
<g><path style="opacity:0.404" fill="#85529a" d="M 348.5,365.5 C 348.67,366.822 348.337,367.989 347.5,369C 345.03,369.989 342.697,371.155 340.5,372.5C 342.751,369.705 345.418,367.372 348.5,365.5 Z"/></g>
<g><path style="opacity:1" fill="#e88440" d="M 330.5,359.5 C 320.528,366.987 309.528,372.654 297.5,376.5C 294.99,376.054 292.99,376.72 291.5,378.5C 289.562,380.163 287.228,380.829 284.5,380.5C 284.833,379.833 285.167,379.167 285.5,378.5C 287.288,378.785 288.955,378.452 290.5,377.5C 293.498,374.998 296.832,372.998 300.5,371.5C 305.84,371.081 310.173,369.748 313.5,367.5C 313.977,366.522 314.643,365.689 315.5,365C 318.515,363.894 321.515,362.728 324.5,361.5C 322.164,360.406 322.164,359.073 324.5,357.5C 326.657,358.05 328.657,358.717 330.5,359.5 Z"/></g>
<g><path style="opacity:0.686" fill="#d9658b" d="M 189.5,371.5 C 194.618,371.513 198.951,373.18 202.5,376.5C 197.919,375.418 193.586,373.752 189.5,371.5 Z"/></g>
<g><path style="opacity:0.463" fill="#bf94cb" d="M 162.5,374.5 C 163.71,374.932 164.71,375.599 165.5,376.5C 163.821,376.715 162.821,376.048 162.5,374.5 Z"/></g>
<g><path style="opacity:0.49" fill="#eaa87e" d="M 297.5,376.5 C 295.898,378.074 293.898,378.741 291.5,378.5C 292.99,376.72 294.99,376.054 297.5,376.5 Z"/></g>
<g><path style="opacity:1" fill="#dc5381" d="M 202.5,376.5 C 206.813,376.378 210.98,377.044 215,378.5C 216.561,378.397 218.061,378.063 219.5,377.5C 221.828,380.335 224.828,382.169 228.5,383C 242.167,383.667 255.833,383.667 269.5,383C 274.154,380.688 279.154,379.854 284.5,380.5C 280.75,382.094 276.75,383.261 272.5,384C 251.525,386.785 230.859,385.452 210.5,380C 207.599,379.125 204.932,377.958 202.5,376.5 Z"/></g>
<g><path style="opacity:1" fill="#752d95" d="M 34.5,377.5 C 35.9305,377.421 37.2638,377.754 38.5,378.5C 39.5403,380.375 41.0403,381.708 43,382.5C 43.9454,382.095 44.6121,381.428 45,380.5C 45.7805,381.944 45.6139,383.277 44.5,384.5C 43.3131,383.106 42.6465,383.273 42.5,385C 43.6868,387.724 44.3535,390.557 44.5,393.5C 40.6692,388.511 37.3359,383.178 34.5,377.5 Z"/></g>
<g><path style="opacity:0.996" fill="#773c8f" d="M 337.5,374.5 C 334.334,379.1 330,382.267 324.5,384C 323.833,385 323.167,386 322.5,387C 318.553,388.154 314.553,388.987 310.5,389.5C 319.71,384.975 328.71,379.975 337.5,374.5 Z"/></g>
<g><path style="opacity:0.957" fill="#88539d" d="M 165.5,376.5 C 175.28,382.388 185.28,387.722 195.5,392.5C 194.5,392.5 193.5,392.5 192.5,392.5C 192.167,392.5 191.833,392.5 191.5,392.5C 185.437,389.312 179.104,386.478 172.5,384C 169.94,381.61 167.606,379.11 165.5,376.5 Z"/></g>
<g><path style="opacity:0.239" fill="#aa87c0" d="M 198.5,393.5 C 201.067,393.721 203.401,394.388 205.5,395.5C 202.772,395.829 200.438,395.163 198.5,393.5 Z"/></g>
<g><path style="opacity:0.024" fill="#d0acd6" d="M 453.5,394.5 C 453.573,396.027 452.906,397.027 451.5,397.5C 451.427,395.973 452.094,394.973 453.5,394.5 Z"/></g>
<g><path style="opacity:0.894" fill="#7f4695" d="M 205.5,395.5 C 212.747,397.535 220.08,399.202 227.5,400.5C 227.5,400.833 227.5,401.167 227.5,401.5C 222.519,400.911 217.519,400.411 212.5,400C 209.761,398.974 207.428,397.474 205.5,395.5 Z"/></g>
<g><path style="opacity:0.106" fill="#b383c5" d="M 227.5,401.5 C 227.5,401.167 227.5,400.833 227.5,400.5C 232.37,400.69 237.036,401.356 241.5,402.5C 240.833,402.5 240.167,402.5 239.5,402.5C 235.481,402.354 231.481,402.021 227.5,401.5 Z"/></g>
<g><path style="opacity:1" fill="#70308c" d="M 310.5,389.5 C 309.766,390.708 309.433,392.041 309.5,393.5C 307.143,393.337 304.81,393.503 302.5,394C 298.99,396.811 294.99,398.811 290.5,400C 282.003,401.874 273.336,403.04 264.5,403.5C 255.983,403.826 247.65,403.493 239.5,402.5C 240.167,402.5 240.833,402.5 241.5,402.5C 265.379,402.533 288.379,398.199 310.5,389.5 Z"/></g>
<g><path style="opacity:1" fill="#6d1691" d="M 192.5,392.5 C 193.5,392.5 194.5,392.5 195.5,392.5C 196.791,392.263 197.791,392.596 198.5,393.5C 200.438,395.163 202.772,395.829 205.5,395.5C 207.428,397.474 209.761,398.974 212.5,400C 217.519,400.411 222.519,400.911 227.5,401.5C 231.481,402.021 235.481,402.354 239.5,402.5C 247.65,403.493 255.983,403.826 264.5,403.5C 262.708,404.309 260.708,404.809 258.5,405C 264.735,404.748 270.569,405.915 276,408.5C 276.561,407.978 277.228,407.645 278,407.5C 280.749,410.418 283.916,412.752 287.5,414.5C 286.5,414.833 285.5,415.167 284.5,415.5C 279.468,412.954 274.468,412.954 269.5,415.5C 265.104,414.365 264.77,412.865 268.5,411C 264.316,409.238 259.983,409.072 255.5,410.5C 257.173,412.086 259.173,412.753 261.5,412.5C 261.5,413.5 261.5,414.5 261.5,415.5C 260.07,415.421 258.736,415.754 257.5,416.5C 256.5,416.167 255.833,415.5 255.5,414.5C 244.704,413.644 234.037,412.311 223.5,410.5C 224.641,409.575 224.641,408.741 223.5,408C 220.773,407.182 218.106,407.348 215.5,408.5C 216.833,409.833 218.167,411.167 219.5,412.5C 224.67,413.238 229.837,413.904 235,414.5C 236.412,413.077 237.579,413.244 238.5,415C 229.362,416.377 220.362,416.543 211.5,415.5C 211.5,413.5 211.5,411.5 211.5,409.5C 204.971,407.852 198.305,407.185 191.5,407.5C 191.26,404.421 191.593,401.421 192.5,398.5C 191.5,397.833 190.5,397.167 189.5,396.5C 191.274,395.813 192.941,394.98 194.5,394C 193.584,393.722 192.918,393.222 192.5,392.5 Z"/></g>
<g><path style="opacity:1" fill="#7a339a" d="M 447.5,402.5 C 441.885,410.449 435.552,417.782 428.5,424.5C 428.5,423.167 428.5,421.833 428.5,420.5C 431.779,419.969 433.113,417.969 432.5,414.5C 433.552,414.649 434.552,414.483 435.5,414C 434.289,412.887 434.289,411.72 435.5,410.5C 434.833,410.167 434.167,409.833 433.5,409.5C 434.325,408.614 435.325,408.281 436.5,408.5C 436.5,406.833 436.5,405.167 436.5,403.5C 439.388,403.22 440.888,404.553 441,407.5C 443.952,405.807 444.118,403.974 441.5,402C 443.488,401.82 445.488,401.986 447.5,402.5 Z"/></g>
<g><path style="opacity:1" fill="#804298" d="M 428.5,424.5 C 423.796,430.205 418.463,435.205 412.5,439.5C 412.34,437.801 412.506,436.134 413,434.5C 413.414,434.957 413.914,435.291 414.5,435.5C 415.731,434.349 415.731,433.183 414.5,432C 416.473,431.505 418.473,431.338 420.5,431.5C 420.5,430.5 420.5,429.5 420.5,428.5C 419.448,428.649 418.448,428.483 417.5,428C 418.546,426.461 419.879,426.295 421.5,427.5C 423.639,426.023 425.972,425.023 428.5,424.5 Z"/></g>
<g><path style="opacity:1" fill="#773393" d="M 69.5,423.5 C 71.8901,423.913 74.2235,424.579 76.5,425.5C 78.0049,426.842 78.6715,428.508 78.5,430.5C 80.3904,430.297 81.8904,430.963 83,432.5C 84.1223,434.42 84.9556,436.42 85.5,438.5C 79.5578,434.227 74.2244,429.227 69.5,423.5 Z"/></g>
<g><path style="opacity:0.482" fill="#a374b0" d="M 85.5,438.5 C 88.0892,439.419 90.0892,441.086 91.5,443.5C 88.9108,442.581 86.9108,440.914 85.5,438.5 Z"/></g>
<g><path style="opacity:1" fill="#7f4399" d="M 412.5,439.5 C 408.716,443.557 404.383,446.891 399.5,449.5C 399.721,448.265 400.388,447.265 401.5,446.5C 400.975,445.808 400.308,445.308 399.5,445C 403.748,445.531 406.082,443.697 406.5,439.5C 407.167,440.167 407.833,440.833 408.5,441.5C 409.524,440.147 410.857,439.48 412.5,439.5 Z"/></g>
<g><path style="opacity:1" fill="#732b92" d="M 133.5,471.5 C 125.301,467.62 117.635,462.953 110.5,457.5C 113.567,457.43 115.9,456.096 117.5,453.5C 118.604,454.631 118.271,455.465 116.5,456C 118.618,457.549 120.951,458.716 123.5,459.5C 123.023,460.478 122.357,461.311 121.5,462C 123.514,463.796 125.681,464.296 128,463.5C 128.49,464.793 128.657,466.127 128.5,467.5C 131.367,467.369 133.033,468.703 133.5,471.5 Z"/></g>
<g><path style="opacity:0.998" fill="#7e3c99" d="M 399.5,449.5 C 389.868,457.989 379.202,464.989 367.5,470.5C 367.64,468.876 366.973,467.71 365.5,467C 371.735,467.552 376.069,465.052 378.5,459.5C 383.092,457.084 387.759,455.084 392.5,453.5C 392.651,450.282 393.484,449.949 395,452.5C 395.333,451.167 395.667,449.833 396,448.5C 397.011,449.337 398.178,449.67 399.5,449.5 Z"/></g>
<g><path style="opacity:0.616" fill="#894da1" d="M 367.5,470.5 C 360.079,474.564 352.413,478.23 344.5,481.5C 344.5,480.5 344.5,479.5 344.5,478.5C 352.16,475.847 359.826,473.181 367.5,470.5 Z"/></g>
<g><path style="opacity:0.973" fill="#85519b" d="M 139.5,474.5 C 142.721,475.505 146.054,476.339 149.5,477C 151.063,477.759 152.063,478.926 152.5,480.5C 147.885,478.863 143.551,476.863 139.5,474.5 Z"/></g>
<g><path style="opacity:0.976" fill="#804795" d="M 152.5,480.5 C 159.109,480.298 164.776,482.298 169.5,486.5C 163.485,485.274 157.818,483.274 152.5,480.5 Z"/></g>
<g><path style="opacity:0.51" fill="#9a6da7" d="M 169.5,486.5 C 171.898,486.259 173.898,486.926 175.5,488.5C 173.102,488.741 171.102,488.074 169.5,486.5 Z"/></g>
<g><path style="opacity:1" fill="#7f4097" d="M 343.5,481.5 C 331.652,486.671 319.319,490.671 306.5,493.5C 307.028,492.279 307.695,491.113 308.5,490C 312.749,488.874 317.082,488.208 321.5,488C 328.599,484.91 335.933,482.743 343.5,481.5 Z"/></g>
<g><path style="opacity:0.522" fill="#9865a4" d="M 182.5,490.5 C 185.495,490.294 188.162,490.96 190.5,492.5C 187.505,492.706 184.838,492.04 182.5,490.5 Z"/></g>
<g><path style="opacity:1" fill="#763490" d="M 190.5,492.5 C 206.754,494.744 223.087,496.578 239.5,498C 240.056,498.383 240.389,498.883 240.5,499.5C 236.167,499.5 231.833,499.5 227.5,499.5C 219.601,498.666 211.601,497.499 203.5,496C 198.924,495.25 194.591,494.083 190.5,492.5 Z"/></g>
<g><path style="opacity:0.212" fill="#7e3c99" d="M 305.5,493.5 C 294.269,496.152 282.936,498.152 271.5,499.5C 266.167,499.5 260.833,499.5 255.5,499.5C 271.958,496.946 288.625,494.946 305.5,493.5 Z"/></g>
</svg>
